<svg width="224" height="36" viewBox="0 0 224 36" fill="none" xmlns="http://www.w3.org/2000/svg">
<path d="M2 18C2 9.16345 9.16345 2 18 2H206C214.837 2 222 9.16345 222 18C222 26.8365 214.837 34 206 34H18C9.16345 34 2 26.8365 2 18Z" fill="black"/>
<path fill-rule="evenodd" clip-rule="evenodd" d="M206 3H18C9.71575 3 3 9.71575 3 18C3 26.2843 9.71575 33 18 33H206C214.285 33 221 26.2843 221 18C221 9.71575 214.285 3 206 3ZM18 2C9.16345 2 2 9.16345 2 18C2 26.8365 9.16345 34 18 34H206C214.837 34 222 26.8365 222 18C222 9.16345 214.837 2 206 2H18Z" fill="#404040"/>
<path fill-rule="evenodd" clip-rule="evenodd" d="M151.814 10.4187C151.561 10.065 151.109 9.91499 150.695 10.0476C150.281 10.1803 150 10.5652 150 10.9999V24.9999C150 25.5522 150.447 25.9999 151 25.9999C151.553 25.9999 152 25.5522 152 24.9999V14.1204L160.186 25.5812C160.439 25.9349 160.891 26.0849 161.305 25.9522C161.719 25.8196 162 25.4346 162 24.9999V10.9999C162 10.4476 161.553 9.99994 161 9.99994C160.447 9.99994 160 10.4476 160 10.9999V21.8795L151.814 10.4187ZM164 17.9999C164 13.5817 167.582 9.99994 172 9.99994H175C175.553 9.99994 176 10.4477 176 10.9999C176 11.5522 175.553 11.9999 175 11.9999H172C168.687 11.9999 166 14.6862 166 17.9999C166 21.3136 168.687 23.9999 172 23.9999H175C175.553 23.9999 176 24.4477 176 24.9999C176 25.5522 175.553 25.9999 175 25.9999H172C167.582 25.9999 164 22.4182 164 17.9999ZM179 9.99994C178.447 9.99994 178 10.4477 178 10.9999V24.9999C178 25.5522 178.447 25.9999 179 25.9999H182C186.418 25.9999 190 22.4182 190 17.9999C190 13.5817 186.418 9.99994 182 9.99994H179ZM180 11.9999H182C185.313 11.9999 188 14.6862 188 17.9999C188 21.3136 185.313 23.9999 182 23.9999H180V11.9999ZM198.375 9.99994C198.767 9.99994 199.123 10.2289 199.285 10.5855L205.66 24.5855C205.889 25.0882 205.667 25.6812 205.165 25.91C204.662 26.1389 204.069 25.917 203.84 25.4144L201.452 20.1703L192.537 25.8436C192.164 26.0813 191.678 26.0451 191.344 25.7546C191.009 25.4641 190.906 24.9885 191.09 24.5855L197.465 10.5855C197.627 10.2289 197.983 9.99994 198.375 9.99994ZM200.615 18.3323L198.375 13.413L194.307 22.3465L200.615 18.3323ZM208.75 9.99994C208.059 9.99994 207.5 10.5596 207.5 11.2499C207.5 11.9403 208.059 12.4999 208.75 12.4999C209.441 12.4999 210 11.9403 210 11.2499C210 10.5596 209.441 9.99994 208.75 9.99994ZM209.75 15.4999C209.75 14.9477 209.303 14.4999 208.75 14.4999C208.197 14.4999 207.75 14.9477 207.75 15.4999V24.9999C207.75 25.5522 208.197 25.9999 208.75 25.9999C209.303 25.9999 209.75 25.5522 209.75 24.9999V15.4999Z" fill="white"/>
<path fill-rule="evenodd" clip-rule="evenodd" d="M126.844 10.4633C127.14 10.9292 127.003 11.5473 126.537 11.8438L116.976 17.9282L127.38 23.5305L131.039 10.7254C131.122 10.4343 131.333 10.1965 131.611 10.0788C131.89 9.96106 132.208 9.97611 132.474 10.1197L145.474 17.1197C145.787 17.2879 145.987 17.6091 146 17.9638C146.013 18.3184 145.837 18.6533 145.537 18.8438L134.537 25.8438C134.071 26.1403 133.453 26.003 133.157 25.537C132.86 25.0711 132.997 24.453 133.463 24.1565L143.025 18.0721L132.62 12.4698L128.962 25.2749C128.879 25.566 128.668 25.8038 128.389 25.9215C128.11 26.0392 127.793 26.0242 127.526 25.8806L114.526 18.8806C114.214 18.7124 114.014 18.3912 114.001 18.0365C113.988 17.6819 114.164 17.347 114.463 17.1565L125.463 10.1565C125.929 9.85996 126.547 9.99731 126.844 10.4633Z" fill="white"/>
<path d="M21.5458 23.5685C21.6251 23.8082 21.752 23.8242 21.99 23.8242H23.4496C23.6876 23.8242 23.7193 23.6644 23.6558 23.4887L20.2131 13.3741C20.0068 12.751 19.8006 12.6072 19.1501 12.6072H18.4679C17.865 12.6072 17.6588 12.767 17.4525 13.3741L14.0256 23.4887C13.9621 23.6644 14.0097 23.8242 14.2477 23.8242H15.7073C15.9612 23.8242 16.0564 23.7443 16.1198 23.5526L16.8179 21.3795H20.8477L21.5458 23.5685ZM18.1189 16.9853L18.7693 14.7643H18.8487L19.515 17.0333L20.34 19.7177H17.2939L18.1189 16.9853Z" fill="#A3A3A3"/>
<path d="M31.4606 19.5579H34.0466C37.2197 19.5579 37.775 17.1611 37.775 16.0266C37.775 14.0133 36.3154 12.6072 34.2053 12.6072H30.4293C29.7471 12.6072 29.5409 12.9267 29.5409 13.518V23.4887C29.5409 23.7603 29.6678 23.8242 29.9058 23.8242H31.0957C31.3971 23.8242 31.4606 23.7923 31.4606 23.4887V19.5579ZM35.7759 16.1544C35.7759 17.1771 35.1889 17.9121 33.8562 17.9121H31.4764V14.3648H33.8245C35.3952 14.3648 35.7759 15.4194 35.7759 16.1544Z" fill="#A3A3A3"/>
<path d="M41.2813 16.9853C41.5193 16.9374 41.7731 16.9214 42.027 16.9214C42.8678 16.9214 43.5659 17.225 44.1846 17.7523C44.3274 17.8642 44.4226 17.9121 44.5337 17.7363L45.2635 16.6817C45.3269 16.5699 45.3587 16.49 45.2159 16.3781C44.2481 15.5632 43.0106 15.2596 41.7255 15.2596C41.3289 15.2596 40.9323 15.2916 40.5515 15.3395C39.6472 15.4674 39.4409 15.8508 39.4409 16.6977V23.5526C39.4409 23.7923 39.5361 23.8242 39.7424 23.8242H40.964C41.202 23.8242 41.2813 23.7923 41.2813 23.5526V16.9853Z" fill="#A3A3A3"/>
<path d="M53.353 19.5899C53.353 16.8895 52.0365 15.2437 49.5137 15.2437C47.245 15.2437 45.6584 16.8415 45.6584 19.6378C45.6584 22.498 46.9118 24 49.4661 24C52.052 24 53.353 22.4181 53.353 19.5899ZM51.465 19.6378C51.465 21.1078 50.9575 22.4341 49.482 22.4341C48.0224 22.4341 47.5306 21.3635 47.5306 19.5899C47.5306 18.008 48.181 16.8096 49.5454 16.8096C51.0685 16.8096 51.465 18.1038 51.465 19.6378Z" fill="#A3A3A3"/>
<path d="M54.7839 19.7496C54.7839 22.3062 55.7679 24 58.6074 24C59.3374 24 62.2249 23.8402 62.2249 23.0253V12.4314C62.2249 12.1917 62.1294 12.1598 61.9234 12.1598H60.6859C60.4479 12.1598 60.3684 12.1917 60.3684 12.4314V15.4514C59.6864 15.2756 59.0994 15.2596 58.6709 15.2596C55.9424 15.2596 54.7839 17.3688 54.7839 19.7496ZM56.7039 19.7496C56.7039 17.6884 57.5924 16.8575 58.8454 16.8575C59.2739 16.8575 59.7179 16.8735 60.3684 17.0492V22.1784C60.0039 22.3222 59.3054 22.4181 58.8614 22.4181C57.4809 22.4181 56.7039 21.715 56.7039 19.7496Z" fill="#A3A3A3"/>
<path d="M68.2549 22.4021C66.4779 22.4021 66.1449 21.6032 66.1449 19.9414V15.6911C66.1449 15.4514 66.0494 15.4194 65.8434 15.4194H64.6059C64.3679 15.4194 64.3044 15.4514 64.3044 15.6911V19.9094C64.3044 22.8655 65.3674 24 68.2229 24C68.7784 24 69.7304 23.9361 70.2854 23.8562C71.0314 23.7124 71.3484 23.2809 71.3484 22.5299V15.6911C71.3484 15.4514 71.2534 15.4194 71.0474 15.4194H69.8099C69.5719 15.4194 69.5084 15.4514 69.5084 15.6911V22.3062C68.9369 22.4181 68.4929 22.4021 68.2549 22.4021Z" fill="#A3A3A3"/>
<path d="M77.0479 22.3701C75.4134 22.3701 74.9854 21.1717 74.9854 19.6857C74.9854 18.2317 75.5564 16.9054 77.0159 16.9054C77.6349 16.9054 78.1739 17.0652 78.6819 17.257C78.9359 17.3688 78.9989 17.3209 79.0784 17.1451L79.4749 16.2024C79.5859 15.9946 79.5384 15.9148 79.3484 15.8029C78.6344 15.4194 77.8094 15.2437 76.9364 15.2437C74.5884 15.2437 73.0974 16.9853 73.0974 19.6857C73.0974 22.5459 74.3984 24 76.7619 24C77.6349 24 78.6979 23.8881 79.5704 23.3928C79.7449 23.2969 79.7764 23.1691 79.6654 22.9933L79.2689 22.0666C79.2054 21.8908 79.1419 21.8429 78.9039 21.9547C78.4599 22.1624 77.7299 22.3701 77.0479 22.3701Z" fill="#A3A3A3"/>
<path d="M86.0936 22.4341C86.0776 22.2903 86.0301 22.2263 85.8241 22.2743C85.5066 22.3222 84.9036 22.3861 84.6341 22.3861C83.9836 22.3861 83.6661 22.1784 83.6661 21.4913V16.8575H85.3641C85.6021 16.8575 85.6176 16.7776 85.6176 16.5859V15.6911C85.6176 15.5472 85.6021 15.4354 85.3641 15.4354H83.6661V13.4061C83.6661 13.1664 83.5551 13.1025 83.3806 13.1504L82.4606 13.47C82.2226 13.5499 82.1591 13.5978 82.1116 13.8375L81.9051 15.3555L80.6996 15.6271C80.4931 15.6751 80.4456 15.739 80.4456 15.9307V16.5859C80.4456 16.7616 80.4616 16.8575 80.6996 16.8575H81.826V21.731C81.826 23.265 82.4766 24 84.2056 24C84.6026 24 85.4116 24 86.1256 23.7603C86.3156 23.6804 86.2841 23.5845 86.2681 23.4567L86.0936 22.4341Z" fill="#A3A3A3"/>
<path d="M99.2909 19.5899C99.2909 16.8895 97.9744 15.2437 95.4519 15.2437C93.1829 15.2437 91.5964 16.8415 91.5964 19.6378C91.5964 22.498 92.8499 24 95.4039 24C97.9899 24 99.2909 22.4181 99.2909 19.5899ZM97.4029 19.6378C97.4029 21.1078 96.8954 22.4341 95.4199 22.4341C93.9604 22.4341 93.4684 21.3635 93.4684 19.5899C93.4684 18.008 94.1189 16.8096 95.4834 16.8096C97.0064 16.8096 97.4029 18.1038 97.4029 19.6378Z" fill="#A3A3A3"/>
<path d="M105.973 12.5433C106.021 12.3994 106.021 12.3036 105.831 12.2397C105.132 12.032 104.323 12 104.006 12C102.277 12 101.547 12.9587 101.547 14.4288V15.4354L100.42 15.6911C100.182 15.739 100.151 15.8189 100.151 16.0107V16.6178C100.151 16.7616 100.167 16.8735 100.405 16.8735H101.547V23.5526C101.547 23.7923 101.642 23.8242 101.848 23.8242H103.086C103.324 23.8242 103.387 23.7923 103.387 23.5526V16.8735H105.307C105.545 16.8735 105.561 16.7936 105.561 16.6178V15.6911C105.561 15.4994 105.545 15.4354 105.307 15.4354H103.387V14.4927C103.387 13.9973 103.609 13.6138 104.387 13.6138C104.656 13.6138 105.053 13.6458 105.481 13.7257C105.64 13.7577 105.735 13.7097 105.767 13.5659L105.973 12.5433Z" fill="#A3A3A3"/>
</svg>
