<svg xmlns="http://www.w3.org/2000/svg" width="258" height="36" fill="none"><path fill="#040D17" d="M2 18C2 9.163 9.182 2 18.042 2h221.916C248.818 2 256 9.163 256 18s-7.182 16-16.042 16H18.042C9.182 34 2 26.837 2 18Z"/><path fill="#323E4D" fill-rule="evenodd" d="M239.958 2.444H18.042C9.428 2.444 2.446 9.41 2.446 18s6.982 15.556 15.596 15.556h221.916c8.614 0 15.596-6.965 15.596-15.556s-6.982-15.556-15.596-15.556ZM18.042 2C9.182 2 2 9.163 2 18s7.182 16 16.042 16h221.916C248.818 34 256 26.837 256 18s-7.182-16-16.042-16H18.042Z" clip-rule="evenodd"/><path fill="#7789A2" d="M20.464 13.987c0-.582-.255-.767-.822-.767h-5.997c-.213 0-.241.071-.241.284v.938c0 .185.028.27.24.27h4.807l.014.057-5.387 6.462c-.27.298-.383.54-.383.952v.27c0 .51.283.724.794.724h6.833c.213 0 .24-.057.24-.27v-.937c0-.213-.027-.284-.24-.284h-5.46l-.026-.086 5.203-6.25c.24-.297.425-.596.425-.993v-.37Zm7.6 4.119c0-1.661-.88-2.556-2.85-2.556-.836 0-1.843.113-2.637.412-.127.042-.17.142-.127.298l.198.81c.043.17.114.198.326.142.468-.157 1.333-.285 1.97-.285 1.206 0 1.46.526 1.46 1.25v.242h-1.587c-2.268 0-3.09 1.221-3.09 2.542 0 1.293.666 2.372 3.175 2.372.908 0 2.056-.113 2.893-.497.184-.085.27-.241.27-.469v-4.26l-.001-.001Zm-1.673 3.665c-.496.199-1.205.227-1.474.227-.908 0-1.503-.284-1.503-1.094 0-1.136.992-1.221 1.616-1.221h1.36v2.088Zm7.21 1.406c3.12 0 4.354-2.201 4.354-5.042 0-2.87-1.418-4.929-4.495-4.929l-2.622.014c-.61 0-.794.256-.794.81v8.337c0 .569.184.81.794.81h2.764Zm2.567-5.014c0 1.989-.623 3.466-2.807 3.466h-1.573v-6.875h1.53c2.212 0 2.85 1.491 2.85 3.409Zm9.548-.057c0-1.661-.88-2.556-2.85-2.556-.836 0-1.842.113-2.636.412-.128.042-.17.142-.128.298l.199.81c.042.17.113.198.326.142.468-.157 1.332-.285 1.97-.285 1.206 0 1.46.526 1.46 1.25v.242H42.47c-2.27 0-3.09 1.221-3.09 2.542 0 1.293.665 2.372 3.175 2.372.907 0 2.056-.113 2.892-.497.184-.085.27-.241.27-.469v-4.26l-.001-.001Zm-1.672 3.665c-.497.199-1.206.227-1.475.227-.907 0-1.503-.284-1.503-1.094 0-1.136.993-1.221 1.616-1.221h1.36l.002 2.088Zm5.282-4.673a3.4 3.4 0 0 1 .667-.057c.75 0 1.375.27 1.928.739.128.1.213.142.312-.014l.652-.938c.057-.1.085-.17-.043-.27-.864-.724-1.97-.994-3.118-.994-.355 0-.71.029-1.05.071-.808.114-.992.455-.992 1.208v6.093c0 .213.085.241.27.241h1.09c.214 0 .284-.028.284-.241v-5.838Zm10.456-1.15c.098-.1.07-.228-.1-.228H58.25c-.213 0-.24.043-.34.142l-2.424 2.884-.057-.029v-5.681c0-.213-.057-.242-.27-.242h-1.105c-.184 0-.27.029-.27.242v9.9c0 .213.086.241.27.241h1.106c.212 0 .269-.028.269-.241v-1.918l1.318-1.505 1.546 3.465c.043.128.17.2.354.2h1.276c.17 0 .198-.1.156-.214l-2.183-4.758 1.886-2.258Zm9.806-2.798c.043-.128.043-.213-.127-.27-.624-.185-1.347-.213-1.63-.213-1.546 0-2.198.852-2.198 2.159v.894l-1.007.228c-.213.042-.241.113-.241.284v.54c0 .127.014.227.227.227h1.02v5.937c0 .213.086.241.27.241h1.106c.213 0 .27-.028.27-.241v-5.937h1.715c.212 0 .227-.071.227-.227v-.824c0-.17-.015-.228-.227-.228h-1.715v-.838c0-.44.198-.78.892-.78.242 0 .596.028.979.099.14.028.226-.014.255-.142l.184-.909Zm2.582 3.948a3.4 3.4 0 0 1 .667-.057c.752 0 1.375.27 1.928.739.128.1.213.142.312-.014l.653-.938c.056-.1.085-.17-.043-.27-.865-.724-1.97-.994-3.12-.994-.35.002-.7.026-1.048.071-.808.114-.993.455-.993 1.208v6.093c0 .213.085.241.27.241h1.09c.214 0 .285-.028.285-.241l-.001-5.838Zm10.788 2.315c0-2.4-1.176-3.863-3.43-3.863-2.028 0-3.446 1.42-3.446 3.906 0 2.542 1.12 3.877 3.403 3.877 2.31 0 3.473-1.406 3.473-3.92Zm-1.687.043c0 1.306-.453 2.485-1.772 2.485-1.304 0-1.744-.951-1.744-2.528 0-1.406.58-2.471 1.8-2.471 1.362 0 1.716 1.15 1.716 2.514Zm4.894-2.401c.27-.042.85-.085 1.078-.085 1.588 0 1.914.867 1.914 2.173v3.793c0 .213.085.241.269.241h1.106c.212 0 .283-.028.283-.241v-3.764c0-.725-.056-1.321-.283-1.847.383-.213 1.063-.34 1.559-.34 1.36 0 1.843.724 1.843 2.258v3.693c0 .213.085.241.27.241h1.092c.212 0 .283-.028.283-.241V19.03c0-2.06-.936-3.48-3.275-3.48-1.02 0-1.942.27-2.61.71-.622-.497-1.402-.71-2.551-.71-.453 0-1.403.085-1.672.128-.81.198-.95.525-.95 1.221v6.037c0 .213.085.241.27.241h1.105c.212 0 .27-.028.27-.241v-5.88l-.001-.001Z"/><path fill="#fff" fill-rule="evenodd" d="M161.53 25.11v-2.22h-2.896a5.521 5.521 0 0 0 1.113-3.333v-3.111c0-3.07-2.493-5.556-5.57-5.556h-10.249c-3.076 0-5.57 2.487-5.57 5.556v3.11c0 3.069 2.494 5.556 5.57 5.556l17.602-.001Zm-17.602-12a3.344 3.344 0 0 0-2.361.976 3.324 3.324 0 0 0-.981 2.359v3.11a3.333 3.333 0 0 0 .981 2.359 3.332 3.332 0 0 0 2.361.975h10.253a3.34 3.34 0 0 0 3.338-3.333v-3.111a3.337 3.337 0 0 0-3.342-3.334h-10.249Z" clip-rule="evenodd"/><path fill="#fff" d="M165.54 10.889v8.667a3.335 3.335 0 0 0 3.342 3.333h8.244v-12h2.228v14.22h-10.472c-3.076 0-5.57-2.486-5.57-5.554v-8.667h2.228Z"/><path fill="#fff" fill-rule="evenodd" d="M195.174 10.889h-8.69v2.222h8.69a3.339 3.339 0 0 1 3.335 3.11h-11.134a4.452 4.452 0 0 0-4.456 4.446 4.46 4.46 0 0 0 1.308 3.145 4.434 4.434 0 0 0 3.148 1.299h13.369v-8.666c0-3.07-2.494-5.556-5.57-5.556Zm-7.799 7.556h11.141v4.444h-11.141a2.226 2.226 0 0 1-2.228-2.222c0-1.228.998-2.222 2.228-2.222Z" clip-rule="evenodd"/><path fill="#fff" d="M204.309 16.445c0-3.07 2.493-5.556 5.57-5.556h10.026v2.222h-10.026a3.34 3.34 0 0 0-3.342 3.334v8.666h-2.228v-8.666Zm19.607 8.666V10.89h-2.228v14.22h2.228Zm5.793-8.666a3.333 3.333 0 0 1 .98-2.36 3.348 3.348 0 0 1 2.362-.974h12.254V10.89h-12.254c-3.077 0-5.57 2.487-5.57 5.556v3.11c0 3.069 2.493 5.556 5.57 5.556h12.254V22.89h-12.254a3.338 3.338 0 0 1-3.342-3.333v-3.112Zm-110.958-5.556 9.873 3.507c3.472 1.15 3.472 6.059 0 7.208l-9.873 3.507v-2.37l9.171-3.257c1.43-.473 1.43-2.495 0-2.968l-7.719-2.794-5.017 11.39-9.873-3.508c-3.472-1.15-3.472-6.058 0-7.208l9.873-3.507v2.37l-9.171 3.257c-1.43.473-1.43 2.495 0 2.968l7.719 2.794 5.017-11.39Z"/></svg>