<svg width="244" height="36" viewBox="0 0 244 36" fill="none" xmlns="http://www.w3.org/2000/svg">
<g clip-path="url(#clip0_718_121)">
<mask id="mask0_718_121" style="mask-type:luminance" maskUnits="userSpaceOnUse" x="2" y="2" width="240" height="32">
<path d="M242 2H2V34H242V2Z" fill="white"/>
</mask>
<g mask="url(#mask0_718_121)">
<path d="M2 18C2 9.16347 8.78644 2 17.1579 2H226.842C235.213 2 242 9.16347 242 18C242 26.8365 235.213 34 226.842 34H17.1579C8.78644 34 2 26.8365 2 18Z" fill="#040D17"/>
<path fill-rule="evenodd" clip-rule="evenodd" d="M226.842 2.44444H17.1579C9.01894 2.44444 2.42105 9.40889 2.42105 18C2.42105 26.5911 9.01898 33.5556 17.1579 33.5556H226.842C234.981 33.5556 241.579 26.5911 241.579 18C241.579 9.40889 234.981 2.44444 226.842 2.44444ZM17.1579 2C8.78644 2 2 9.16347 2 18C2 26.8366 8.78644 34 17.1579 34H226.842C235.213 34 242 26.8366 242 18C242 9.16347 235.213 2 226.842 2H17.1579Z" fill="#323E4D"/>
<path d="M20.7642 13.4903V13.8829C20.7642 14.3056 20.5703 14.6227 20.3166 14.9397L14.841 21.5828L14.8709 21.6734H20.615C20.8388 21.6734 20.8687 21.7489 20.8687 21.9754V22.9718C20.8687 23.1983 20.8388 23.2587 20.615 23.2587H13.4236C12.8865 23.2587 12.5881 23.0322 12.5881 22.4887V22.2018C12.5881 21.764 12.7075 21.5073 12.991 21.1902L18.6605 14.3207L18.6456 14.2603H13.5878C13.364 14.2603 13.3341 14.1698 13.3341 13.9735V12.977C13.3341 12.7506 13.364 12.675 13.5878 12.675H19.8989C20.4956 12.675 20.7642 12.8713 20.7642 13.4903Z" fill="white"/>
<path d="M28.7624 17.8688V22.3981C28.7624 22.6397 28.6729 22.8058 28.4789 22.8964C27.5987 23.304 26.3902 23.4248 25.4353 23.4248C22.7945 23.4248 22.0933 22.2773 22.0933 20.9034C22.0933 19.4993 22.9586 18.2009 25.3458 18.2009H27.0168V17.9442C27.0168 17.1743 26.7482 16.6156 25.48 16.6156C24.8087 16.6156 23.8986 16.7515 23.4062 16.9176C23.1824 16.978 23.1078 16.9478 23.0631 16.7666L22.8542 15.906C22.8094 15.74 22.8542 15.6343 22.9885 15.589C23.824 15.2719 24.8833 15.1511 25.7635 15.1511C27.8374 15.1511 28.7624 16.1023 28.7624 17.8688ZM27.0019 21.764V19.5446H25.5696C24.9131 19.5446 23.8687 19.6352 23.8687 20.843C23.8687 21.7036 24.4953 22.0056 25.4502 22.0056C25.7337 22.0056 26.4797 21.9754 27.0019 21.764Z" fill="white"/>
<path d="M34.5908 23.2589H31.6814C31.0399 23.2589 30.8459 23.0022 30.8459 22.3983V13.5358C30.8459 12.947 31.0399 12.6753 31.6814 12.6753L34.4416 12.6602C37.6792 12.6602 39.1713 14.8494 39.1713 17.8991C39.1713 20.9187 37.8732 23.2589 34.5908 23.2589ZM37.2913 17.9294C37.2913 15.8911 36.6199 14.3058 34.2924 14.3058H32.6811V21.6132H34.3372C36.6348 21.6132 37.2913 20.043 37.2913 17.9294Z" fill="white"/>
<path d="M47.3392 17.8688V22.3981C47.3392 22.6397 47.2497 22.8058 47.056 22.8964C46.1754 23.304 44.9671 23.4248 44.0122 23.4248C41.3714 23.4248 40.6702 22.2773 40.6702 20.9034C40.6702 19.4993 41.5355 18.2009 43.9227 18.2009H45.5937V17.9442C45.5937 17.1743 45.3252 16.6156 44.057 16.6156C43.3856 16.6156 42.4755 16.7515 41.9831 16.9176C41.7593 16.978 41.6847 16.9478 41.64 16.7666L41.4311 15.906C41.3863 15.74 41.4311 15.6343 41.5654 15.589C42.4009 15.2719 43.4602 15.1511 44.3404 15.1511C46.4145 15.1511 47.3392 16.1023 47.3392 17.8688ZM45.5788 21.764V19.5446H44.1465C43.49 19.5446 42.4456 19.6352 42.4456 20.843C42.4456 21.7036 43.0723 22.0056 44.0271 22.0056C44.3106 22.0056 45.0566 21.9754 45.5788 21.764Z" fill="white"/>
<path d="M51.1387 16.7968V23.0021C51.1387 23.2285 51.0641 23.2587 50.84 23.2587H49.6912C49.4975 23.2587 49.408 23.2285 49.408 23.0021V16.5251C49.408 15.7249 49.6021 15.3625 50.4522 15.2418C50.8105 15.1964 51.1833 15.1663 51.5565 15.1663C52.7649 15.1663 53.9287 15.4531 54.8388 16.2231C54.973 16.3288 54.9434 16.4043 54.8834 16.51L54.1974 17.5064C54.0928 17.6725 54.0033 17.6272 53.8691 17.5215C53.2872 17.0233 52.6308 16.7364 51.8397 16.7364C51.601 16.7364 51.3624 16.7515 51.1387 16.7968Z" fill="white"/>
<path d="M62.1411 15.5739L60.1567 17.9745L62.4543 23.0323C62.4989 23.1531 62.4693 23.2587 62.2902 23.2587H60.9472C60.7531 23.2587 60.619 23.1832 60.5744 23.0474L58.9478 19.3635L57.5603 20.9639V23.0021C57.5603 23.2285 57.5008 23.2587 57.2771 23.2587H56.1133C55.9191 23.2587 55.8296 23.2285 55.8296 23.0021V12.4788C55.8296 12.2523 55.9191 12.2222 56.1133 12.2222H57.2771C57.5008 12.2222 57.5603 12.2523 57.5603 12.4788V18.518L57.6203 18.5482L60.1712 15.4833C60.2758 15.3776 60.3058 15.3323 60.5294 15.3323H62.0365C62.2156 15.3323 62.2452 15.4682 62.1411 15.5739Z" fill="white"/>
<path d="M74.8488 19.2125C74.8488 21.6282 73.715 23.4248 71.0741 23.4248C70.0594 23.4248 68.9406 23.2889 68.0454 22.8813C67.8663 22.8058 67.8213 22.7001 67.8213 22.5189V12.4939C67.8213 12.2675 67.8958 12.2222 68.12 12.2222H69.2838C69.5075 12.2222 69.567 12.2523 69.567 12.4939V15.4229C70.1489 15.2418 70.895 15.1511 71.4319 15.1511C73.8191 15.1511 74.8488 16.8572 74.8488 19.2125ZM73.0585 19.288C73.0585 17.5215 72.342 16.661 71.1486 16.661C70.8354 16.661 70.2085 16.7063 69.567 16.9025V21.7339C70.0444 21.8999 70.5967 21.9301 70.9995 21.9301C72.2379 21.9301 73.0585 21.2054 73.0585 19.288Z" fill="white"/>
<path d="M80.176 24.5573V24.5422C79.7132 25.9312 78.9377 26.4446 77.6843 26.4446C77.371 26.4446 76.8637 26.4295 76.3713 26.2634C76.1477 26.2181 76.1177 26.1577 76.1627 25.9765L76.3713 25.0555C76.4163 24.8593 76.4909 24.8442 76.6696 24.8895C77.0128 24.965 77.1474 24.9952 77.401 24.9952C78.1021 24.9952 78.4749 24.7687 78.714 24.044L79.0272 23.0928H78.669C78.3107 23.0928 78.1021 23.0627 77.9229 22.4738L75.6849 15.5439C75.6403 15.408 75.6999 15.3325 75.849 15.3325H77.2219C77.4456 15.3325 77.4902 15.3627 77.5352 15.5288L78.5499 19.0013L79.3254 21.734H79.415L80.2506 18.9711L81.3544 15.5439C81.3994 15.3778 81.4294 15.3325 81.6531 15.3325H83.0106C83.1597 15.3325 83.2047 15.3929 83.1597 15.5288L80.176 24.5573Z" fill="white"/>
<path fill-rule="evenodd" clip-rule="evenodd" d="M148.47 25.1111V22.8889H145.603C146.295 21.9604 146.706 20.8062 146.706 19.5556V16.4445C146.706 13.3762 144.237 10.8889 141.191 10.8889H131.044C127.998 10.8889 125.529 13.3762 125.529 16.4445V19.5556C125.529 22.6238 127.998 25.1111 131.044 25.1111H148.47ZM131.044 13.1111C129.217 13.1111 127.735 14.6035 127.735 16.4445V19.5556C127.735 21.3965 129.217 22.8889 131.044 22.8889H141.195C143.021 22.8866 144.5 21.3951 144.5 19.5556V16.4445C144.5 14.6035 143.018 13.1111 141.191 13.1111H131.044Z" fill="white"/>
<path d="M152.441 10.8889V19.5556C152.441 21.3965 153.923 22.8889 155.75 22.8889H163.912V10.8889H166.118V25.1111H155.75C152.704 25.1111 150.235 22.6238 150.235 19.5556V10.8889H152.441Z" fill="white"/>
<path fill-rule="evenodd" clip-rule="evenodd" d="M181.779 10.8889H173.176V13.1111H181.779C183.533 13.1111 184.967 14.4849 185.081 16.2222H174.059C171.622 16.2222 169.647 18.2121 169.647 20.6667C169.647 23.1213 171.622 25.1111 174.059 25.1111H187.294V16.4445C187.294 13.3762 184.825 10.8889 181.779 10.8889ZM174.059 18.4445H185.088V22.8889H174.059C172.841 22.8889 171.853 21.894 171.853 20.6667C171.853 19.4394 172.841 18.4445 174.059 18.4445Z" fill="white"/>
<path d="M190.823 16.4445C190.823 13.3762 193.292 10.8889 196.338 10.8889H206.265V13.1111H196.338C194.511 13.1111 193.029 14.6035 193.029 16.4445V25.1111H190.823V16.4445Z" fill="white"/>
<path d="M210.235 25.1111V10.8889H208.029V25.1111H210.235Z" fill="white"/>
<path d="M215.971 16.4445C215.971 14.6035 217.452 13.1111 219.279 13.1111H231.412V10.8889H219.279C216.233 10.8889 213.765 13.3762 213.765 16.4445V19.5556C213.765 22.6238 216.233 25.1111 219.279 25.1111H231.412V22.8889H219.279C217.452 22.8889 215.971 21.3965 215.971 19.5556V16.4445Z" fill="white"/>
<path d="M106.118 10.8889L115.893 14.3962C119.33 15.5455 119.33 20.4546 115.893 21.6039L106.118 25.1111V22.7417L115.197 19.484C116.613 19.0107 116.613 16.9894 115.197 16.5161L107.555 13.7221L102.588 25.1111L92.813 21.6039C89.3758 20.4546 89.3758 15.5455 92.813 14.3962L102.588 10.8889V13.2583L93.5083 16.5161C92.093 16.9894 92.093 19.0107 93.5083 19.484L101.15 22.278L106.118 10.8889Z" fill="white"/>
</g>
</g>
<defs>
<clipPath id="clip0_718_121">
<rect width="240" height="32" fill="white" transform="translate(2 2)"/>
</clipPath>
</defs>
</svg>
