<svg width="210" height="34" viewBox="0 0 210 34" fill="none" xmlns="http://www.w3.org/2000/svg">
<path d="M192.973 2.36108H17.0269C8.92922 2.36108 2.36475 8.91514 2.36475 17C2.36475 25.0848 8.92922 31.6389 17.0269 31.6389H192.973C201.071 31.6389 207.635 25.0848 207.635 17C207.635 8.91514 201.071 2.36108 192.973 2.36108Z" fill="black" stroke="#404040"/>
<path fill-rule="evenodd" clip-rule="evenodd" d="M143.494 9.48957C143.886 9.36429 144.314 9.50595 144.553 9.84L152.296 20.6639V10.389C152.296 9.86739 152.72 9.44452 153.242 9.44452C153.765 9.44452 154.188 9.86739 154.188 10.389V23.6109C154.188 24.0215 153.922 24.385 153.531 24.5102C153.139 24.6356 152.712 24.4939 152.473 24.1598L144.729 13.336V23.6109C144.729 24.1325 144.306 24.5553 143.783 24.5553C143.261 24.5553 142.837 24.1325 142.837 23.6109V10.389C142.837 9.97841 143.103 9.6149 143.494 9.48957Z" fill="white"/>
<path fill-rule="evenodd" clip-rule="evenodd" d="M156.08 16.9999C156.08 12.8271 159.468 9.44446 163.648 9.44446H166.485C167.008 9.44446 167.431 9.86729 167.431 10.3889C167.431 10.9105 167.008 11.3333 166.485 11.3333H163.648C160.513 11.3333 157.972 13.8703 157.972 16.9999C157.972 20.1294 160.513 22.6664 163.648 22.6664H166.485C167.008 22.6664 167.431 23.0892 167.431 23.6108C167.431 24.1324 167.008 24.5552 166.485 24.5552H163.648C159.468 24.5552 156.08 21.1726 156.08 16.9999Z" fill="white"/>
<path fill-rule="evenodd" clip-rule="evenodd" d="M169.323 10.3889C169.323 9.86729 169.747 9.44446 170.269 9.44446H173.107C177.286 9.44446 180.674 12.8271 180.674 16.9999C180.674 21.1726 177.286 24.5552 173.107 24.5552H170.269C169.747 24.5552 169.323 24.1324 169.323 23.6108V10.3889ZM171.215 11.3333V22.6664H173.107C176.241 22.6664 178.782 20.1294 178.782 16.9999C178.782 13.8703 176.241 11.3333 173.107 11.3333H171.215Z" fill="white"/>
<path fill-rule="evenodd" clip-rule="evenodd" d="M187.059 9.44446C187.459 9.44446 187.816 9.6954 187.95 10.0712L192.68 23.2932C192.855 23.7844 192.599 24.3248 192.107 24.5002C191.615 24.6757 191.074 24.4197 190.898 23.9285L189.543 20.1419L182.838 24.4073C182.497 24.6242 182.056 24.6008 181.74 24.3492C181.423 24.0975 181.303 23.6732 181.439 23.2932L186.168 10.0712C186.303 9.6954 186.659 9.44446 187.059 9.44446ZM188.891 18.3175L187.059 13.1969L184.148 21.3341L188.891 18.3175Z" fill="white"/>
<path d="M195.572 9.44446C194.919 9.44446 194.39 9.97302 194.39 10.625C194.39 11.277 194.919 11.8055 195.572 11.8055C196.226 11.8055 196.755 11.277 196.755 10.625C196.755 9.97302 196.226 9.44446 195.572 9.44446Z" fill="white"/>
<path d="M196.518 14.6389C196.518 14.1173 196.095 13.6945 195.572 13.6945C195.05 13.6945 194.626 14.1173 194.626 14.6389V23.6109C194.626 24.1325 195.05 24.5553 195.572 24.5553C196.095 24.5553 196.518 24.1325 196.518 23.6109V14.6389Z" fill="white"/>
<path fill-rule="evenodd" clip-rule="evenodd" d="M120.933 9.88198C121.214 10.322 121.083 10.9058 120.643 11.1858L111.598 16.9321L121.44 22.223L124.901 10.1296C124.98 9.85459 125.179 9.63005 125.443 9.51889C125.707 9.40773 126.007 9.42189 126.259 9.55747L138.556 16.1684C138.852 16.3273 139.04 16.6307 139.053 16.9656C139.065 17.3005 138.898 17.6168 138.615 17.7968L128.21 24.4077C127.769 24.6878 127.185 24.558 126.904 24.118C126.624 23.678 126.754 23.0942 127.194 22.8142L136.238 17.0679L126.397 11.777L122.936 23.8704C122.858 24.1454 122.658 24.3699 122.395 24.4811C122.131 24.5923 121.83 24.5781 121.578 24.4425L109.281 17.8315C108.986 17.6727 108.797 17.3693 108.784 17.0344C108.772 16.6995 108.938 16.3832 109.222 16.2032L119.627 9.59222C120.068 9.3122 120.653 9.44192 120.933 9.88198Z" fill="white"/>
<path d="M21.4894 12.7368C21.4894 12.1181 21.2185 11.9219 20.6166 11.9219H14.2514C14.0257 11.9219 13.9956 11.9973 13.9956 12.2237V13.2197C13.9956 13.4159 14.0257 13.5065 14.2514 13.5065H19.3526L19.3676 13.5668L13.6494 20.4332C13.3635 20.7501 13.2432 21.0067 13.2432 21.4443V21.731C13.2432 22.2743 13.5441 22.5007 14.0859 22.5007H21.3389C21.5646 22.5007 21.5947 22.4403 21.5947 22.214V21.2179C21.5947 20.9916 21.5646 20.9161 21.3389 20.9161H15.5455L15.5154 20.8256L21.0379 14.1855C21.2937 13.8686 21.4894 13.5517 21.4894 13.1292V12.7368Z" fill="#A3A3A3"/>
<path d="M29.5562 17.1132C29.5562 15.3476 28.6232 14.3969 26.5316 14.3969C25.6437 14.3969 24.5753 14.5176 23.7327 14.8345C23.5972 14.8797 23.5521 14.9854 23.5972 15.1514L23.8079 16.0116C23.8531 16.1927 23.9283 16.2228 24.154 16.1625C24.6506 15.9965 25.5685 15.8606 26.2456 15.8606C27.5247 15.8606 27.7956 16.419 27.7956 17.1887V17.4452H26.1102C23.7026 17.4452 22.8298 18.743 22.8298 20.1465C22.8298 21.5198 23.5371 22.6667 26.2005 22.6667C27.1636 22.6667 28.3824 22.5459 29.2703 22.1385C29.4659 22.0479 29.5562 21.882 29.5562 21.6405V17.1132ZM27.7805 21.0067C27.2539 21.218 26.5015 21.2481 26.2156 21.2481C25.2525 21.2481 24.6205 20.9463 24.6205 20.0861C24.6205 18.8789 25.6738 18.7883 26.3359 18.7883H27.7805V21.0067Z" fill="#A3A3A3"/>
<path d="M35.4344 22.5006C38.745 22.5006 40.0541 20.1615 40.0541 17.1433C40.0541 14.0949 38.5493 11.9067 35.284 11.9067L32.5001 11.9218C31.8531 11.9218 31.6575 12.1935 31.6575 12.782V21.6404C31.6575 22.2441 31.8531 22.5006 32.5001 22.5006H35.4344ZM38.1581 17.1735C38.1581 19.2862 37.496 20.8557 35.1787 20.8557H33.5084V13.5516H35.1335C37.4809 13.5516 38.1581 15.1362 38.1581 17.1735Z" fill="#A3A3A3"/>
<path d="M48.2924 17.1132C48.2924 15.3476 47.3592 14.3969 45.2676 14.3969C44.3798 14.3969 43.3115 14.5176 42.4688 14.8345C42.3334 14.8797 42.2882 14.9854 42.3334 15.1514L42.544 16.0116C42.5891 16.1927 42.6644 16.2228 42.8901 16.1625C43.3867 15.9965 44.3046 15.8606 44.9818 15.8606C46.2608 15.8606 46.5317 16.419 46.5317 17.1887V17.4452H44.8463C42.4387 17.4452 41.5659 18.743 41.5659 20.1465C41.5659 21.5198 42.2732 22.6667 44.9366 22.6667C45.8997 22.6667 47.1185 22.5459 48.0062 22.1385C48.2021 22.0479 48.2924 21.882 48.2924 21.6405V17.1132ZM46.5166 21.0067C45.99 21.218 45.2376 21.2481 44.9516 21.2481C43.9886 21.2481 43.3566 20.9463 43.3566 20.0861C43.3566 18.8789 44.41 18.7883 45.0721 18.7883H46.5166V21.0067Z" fill="#A3A3A3"/>
<path d="M52.1239 16.0417C52.3495 15.9964 52.5903 15.9813 52.831 15.9813C53.6289 15.9813 54.2911 16.2681 54.8776 16.7661C55.0133 16.8717 55.1037 16.917 55.2087 16.751L55.9011 15.755C55.9612 15.6493 55.9914 15.5739 55.8557 15.4682C54.9381 14.6986 53.7642 14.4119 52.5454 14.4119C52.1693 14.4119 51.7929 14.442 51.432 14.4873C50.574 14.6081 50.3787 14.9702 50.3787 15.7701V22.2441C50.3787 22.4705 50.4685 22.5007 50.6643 22.5007H51.8231C52.0487 22.5007 52.1239 22.4705 52.1239 22.2441V16.0417Z" fill="#A3A3A3"/>
<path d="M63.221 14.8193C63.326 14.7137 63.2962 14.5778 63.1155 14.5778H61.5958C61.3698 14.5778 61.34 14.6231 61.2345 14.7288L58.6615 17.7923L58.601 17.762V11.7257C58.601 11.4993 58.5409 11.4691 58.3153 11.4691H57.1414C56.9461 11.4691 56.8557 11.4993 56.8557 11.7257V22.2441C56.8557 22.4705 56.9461 22.5007 57.1414 22.5007H58.3153C58.5409 22.5007 58.601 22.4705 58.601 22.2441V20.2068L60.0005 18.6072L61.6408 22.2894C61.6862 22.4252 61.8215 22.5007 62.0168 22.5007H63.3714C63.5521 22.5007 63.5819 22.395 63.5369 22.2743L61.2194 17.2188L63.221 14.8193Z" fill="#A3A3A3"/>
<path d="M73.6296 11.8465C73.675 11.7106 73.675 11.6201 73.4943 11.5598C72.8322 11.3635 72.065 11.3334 71.7637 11.3334C70.1235 11.3334 69.4315 12.2388 69.4315 13.6272V14.5779L68.3631 14.8194C68.1374 14.8647 68.1072 14.9401 68.1072 15.1212V15.6947C68.1072 15.8305 68.1223 15.9361 68.3479 15.9361H69.4315V22.2442C69.4315 22.4705 69.5218 22.5007 69.7172 22.5007H70.8911C71.1167 22.5007 71.1772 22.4705 71.1772 22.2442V15.9361H72.9977C73.2233 15.9361 73.2385 15.8607 73.2385 15.6947V14.8194C73.2385 14.6383 73.2233 14.5779 72.9977 14.5779H71.1772V13.6876C71.1772 13.2198 71.3877 12.8576 72.1251 12.8576C72.381 12.8576 72.757 12.8877 73.1633 12.9632C73.3137 12.9934 73.404 12.9481 73.4343 12.8123L73.6296 11.8465Z" fill="#A3A3A3"/>
<path d="M76.371 16.0417C76.5966 15.9964 76.8373 15.9813 77.0781 15.9813C77.876 15.9813 78.5377 16.2681 79.1246 16.7661C79.2604 16.8717 79.3502 16.917 79.4557 16.751L80.1481 15.755C80.2082 15.6493 80.2385 15.5739 80.1027 15.4682C79.1847 14.6986 78.0113 14.4119 76.7924 14.4119C76.4159 14.4119 76.0399 14.442 75.679 14.4873C74.8211 14.6081 74.6252 14.9702 74.6252 15.7701V22.2441C74.6252 22.4705 74.7156 22.5007 74.9114 22.5007H76.0702C76.2958 22.5007 76.371 22.4705 76.371 22.2441V16.0417Z" fill="#A3A3A3"/>
<path d="M87.8207 18.5016C87.8207 15.9512 86.572 14.3969 84.1793 14.3969C82.0272 14.3969 80.5227 15.9059 80.5227 18.5468C80.5227 21.2481 81.7113 22.6667 84.1339 22.6667C86.5867 22.6667 87.8207 21.1727 87.8207 18.5016ZM86.03 18.5468C86.03 19.9352 85.5485 21.1878 84.149 21.1878C82.7646 21.1878 82.2982 20.1767 82.2982 18.5016C82.2982 17.0076 82.915 15.8758 84.2095 15.8758C85.654 15.8758 86.03 17.0981 86.03 18.5468Z" fill="#A3A3A3"/>
<path d="M91.2247 15.9965C91.5104 15.9512 92.1276 15.9059 92.3684 15.9059C94.0536 15.9059 94.3998 16.8265 94.3998 18.2149V22.2441C94.3998 22.4705 94.4902 22.5007 94.6855 22.5007H95.8594C96.085 22.5007 96.1602 22.4705 96.1602 22.2441V18.245C96.1602 17.4754 96.1001 16.8415 95.8594 16.2832C96.2657 16.0569 96.9879 15.921 97.5143 15.921C98.9593 15.921 99.4706 16.6907 99.4706 18.3205V22.2441C99.4706 22.4705 99.5609 22.5007 99.7567 22.5007H100.915C101.141 22.5007 101.216 22.4705 101.216 22.2441V18.0941C101.216 15.9059 100.223 14.3969 97.7404 14.3969C96.6568 14.3969 95.6787 14.6835 94.9716 15.1514C94.3095 14.6232 93.4818 14.3969 92.2629 14.3969C91.7814 14.3969 90.7731 14.4874 90.4874 14.5327C89.6294 14.7439 89.479 15.091 89.479 15.8305V22.2441C89.479 22.4705 89.5693 22.5007 89.7652 22.5007H90.9386C91.1642 22.5007 91.2247 22.4705 91.2247 22.2441V15.9965Z" fill="#A3A3A3"/>
</svg>
