<svg width="240" height="32" viewBox="0 0 240 32" fill="none" xmlns="http://www.w3.org/2000/svg">
<g clip-path="url(#clip0_3643_925)">
<mask id="mask0_3643_925" style="mask-type:luminance" maskUnits="userSpaceOnUse" x="0" y="0" width="240" height="32">
<path d="M240 0H0V32H240V0Z" fill="white"/>
</mask>
<g mask="url(#mask0_3643_925)">
<path d="M0 16C0 7.16347 6.78644 0 15.1579 0H224.842C233.213 0 240 7.16347 240 16C240 24.8365 233.213 32 224.842 32H15.1579C6.78644 32 0 24.8365 0 16Z" fill="#040D17"/>
<path fill-rule="evenodd" clip-rule="evenodd" d="M224.842 0.444444H15.1579C7.01894 0.444444 0.421053 7.40889 0.421053 16C0.421053 24.5911 7.01898 31.5556 15.1579 31.5556H224.842C232.981 31.5556 239.579 24.5911 239.579 16C239.579 7.40889 232.981 0.444444 224.842 0.444444ZM15.1579 0C6.78644 0 0 7.16347 0 16C0 24.8366 6.78644 32 15.1579 32H224.842C233.213 32 240 24.8366 240 16C240 7.16347 233.213 0 224.842 0H15.1579Z" fill="#323E4D"/>
<path fill-rule="evenodd" clip-rule="evenodd" d="M146.47 23.1109V20.8887H143.603C144.295 19.9601 144.706 18.806 144.706 17.5553V14.4442C144.706 11.376 142.237 8.88867 139.191 8.88867H129.044C125.998 8.88867 123.529 11.376 123.529 14.4442V17.5553C123.529 20.6236 125.998 23.1109 129.044 23.1109H146.47ZM129.044 11.1109C127.217 11.1109 125.735 12.6033 125.735 14.4442V17.5553C125.735 19.3963 127.217 20.8887 129.044 20.8887H139.195C141.021 20.8864 142.5 19.3949 142.5 17.5553V14.4442C142.5 12.6033 141.018 11.1109 139.191 11.1109H129.044Z" fill="white"/>
<path d="M150.441 8.88867V17.5553C150.441 19.3963 151.923 20.8887 153.75 20.8887H161.912V8.88867H164.118V23.1109H153.75C150.704 23.1109 148.235 20.6236 148.235 17.5553V8.88867H150.441Z" fill="white"/>
<path fill-rule="evenodd" clip-rule="evenodd" d="M179.78 8.88867H171.177V11.1109H179.78C181.533 11.1109 182.968 12.4847 183.082 14.222H172.059C169.623 14.222 167.647 16.2118 167.647 18.6664C167.647 21.121 169.623 23.1109 172.059 23.1109H185.295V14.4442C185.295 11.376 182.825 8.88867 179.78 8.88867ZM172.059 16.4442H183.089V20.8887H172.059C170.841 20.8887 169.853 19.8937 169.853 18.6664C169.853 17.4392 170.841 16.4442 172.059 16.4442Z" fill="white"/>
<path d="M188.823 14.4442C188.823 11.376 191.292 8.88867 194.338 8.88867H204.264V11.1109H194.338C192.511 11.1109 191.029 12.6033 191.029 14.4442V23.1109H188.823V14.4442Z" fill="white"/>
<path d="M208.235 23.1109V8.88867H206.029V23.1109H208.235Z" fill="white"/>
<path d="M213.971 14.4442C213.971 12.6033 215.452 11.1109 217.279 11.1109H229.412V8.88867H217.279C214.233 8.88867 211.765 11.376 211.765 14.4442V17.5553C211.765 20.6236 214.233 23.1109 217.279 23.1109H229.412V20.8887H217.279C215.452 20.8887 213.971 19.3963 213.971 17.5553V14.4442Z" fill="white"/>
<path d="M104.118 8.88867L113.893 12.3959C117.33 13.5452 117.33 18.4544 113.893 19.6037L104.118 23.1109V20.7415L113.198 17.4837C114.613 17.0105 114.613 14.9891 113.198 14.5159L105.556 11.7218L100.588 23.1109L90.8133 19.6037C87.376 18.4544 87.376 13.5452 90.8133 12.3959L100.588 8.88867V11.2581L91.5086 14.5159C90.0933 14.9891 90.0933 17.0105 91.5086 17.4837L99.1506 20.2777L104.118 8.88867Z" fill="white"/>
<path d="M73.4131 13.3398H75.2281L76.8375 17.7287C76.9081 17.9278 76.9721 18.1246 77.029 18.319C77.0903 18.5088 77.1423 18.6963 77.1847 18.8815C77.2319 19.0667 77.2699 19.2519 77.2981 19.4371H77.3409C77.3881 19.1963 77.4543 18.9278 77.5394 18.6315C77.629 18.3306 77.7282 18.0297 77.8372 17.7287L79.3826 13.3398H81.1765L77.8085 22.0829C77.6148 22.5829 77.3762 23.0088 77.0925 23.3607C76.8137 23.7172 76.4828 23.9857 76.0998 24.1662C75.7173 24.3514 75.2801 24.444 74.7882 24.444C74.5522 24.444 74.3466 24.4302 74.1715 24.4023C73.9968 24.3792 73.8476 24.3538 73.725 24.326V23.0204C73.8243 23.0436 73.9496 23.0644 74.1004 23.0829C74.2518 23.1014 74.4079 23.1107 74.5685 23.1107C74.8663 23.1107 75.124 23.0528 75.3415 22.9371C75.559 22.8214 75.7429 22.657 75.8943 22.444C76.0456 22.2357 76.1709 21.9973 76.2701 21.7287L76.5468 21.0065L73.4131 13.3398Z" fill="white"/>
<path d="M67.2161 10.2227V12.8268C67.2161 13.1278 67.2064 13.424 67.1875 13.7157C67.1733 14.0027 67.1592 14.2273 67.1451 14.3893H67.2161C67.4288 14.056 67.7244 13.7759 68.1024 13.5491C68.4849 13.3175 68.9742 13.2018 69.5698 13.2018C70.5011 13.2018 71.2502 13.5375 71.8176 14.2088C72.3845 14.8755 72.6682 15.8639 72.6682 17.174C72.6682 18.0444 72.5385 18.7759 72.2782 19.3685C72.0183 19.9611 71.6522 20.4102 71.1792 20.7157C70.7116 21.0167 70.1605 21.1671 69.5274 21.1671C68.9319 21.1671 68.4497 21.0606 68.0808 20.8476C67.7169 20.6301 67.431 20.3778 67.2232 20.0907H67.1027L66.7979 21.0282H65.5498V10.2227H67.2161ZM69.1304 14.5282C68.6575 14.5282 68.282 14.6208 68.0032 14.806C67.7288 14.9912 67.5302 15.269 67.4076 15.6393C67.2845 16.0051 67.2205 16.4703 67.2161 17.0351V17.181C67.2161 18.0375 67.3529 18.6926 67.6273 19.1463C67.9061 19.6 68.4117 19.8268 69.1445 19.8268C69.726 19.8268 70.1725 19.5977 70.4844 19.1393C70.7963 18.6763 70.9525 18.0143 70.9525 17.1532C70.9525 16.2828 70.7963 15.6278 70.4844 15.1879C70.1773 14.7481 69.726 14.5282 69.1304 14.5282Z" fill="white"/>
<path d="M55.121 10.2227V15.4449C55.121 15.681 55.1117 15.9403 55.0927 16.2227C55.0738 16.5004 55.0548 16.762 55.0358 17.0074H55.0715C55.1942 16.8453 55.3407 16.6555 55.511 16.4379C55.6857 16.2203 55.8511 16.0305 56.0073 15.8685L58.4038 13.3407H60.318L57.1773 16.6463L60.5236 21.0282H58.567L56.0567 17.6532L55.121 18.4379V21.0282H53.4551V10.2227H55.121Z" fill="white"/>
<path d="M51.1642 13.1953C51.2965 13.1953 51.4403 13.2022 51.5965 13.2162C51.7527 13.23 51.8873 13.2486 52.0006 13.2717L51.8445 14.7995C51.7452 14.7717 51.6226 14.7509 51.4761 14.737C51.334 14.7231 51.2065 14.7162 51.0931 14.7162C50.7953 14.7162 50.5117 14.7648 50.2421 14.862C49.973 14.9546 49.7343 15.0981 49.5261 15.2925C49.3183 15.4823 49.1551 15.7208 49.0368 16.0078C48.919 16.2949 48.8599 16.6282 48.8599 17.0078V21.0286H47.1865V13.3411H48.4911L48.7178 14.6953H48.7959C48.9521 14.4222 49.1458 14.1722 49.3774 13.9453C49.609 13.7185 49.8737 13.5379 50.1715 13.4036C50.4737 13.2648 50.8046 13.1953 51.1642 13.1953Z" fill="white"/>
<path d="M41.841 13.1953C42.8336 13.1953 43.5828 13.4106 44.0886 13.8411C44.5989 14.2717 44.8544 14.943 44.8544 15.855V21.0286H43.6702L43.3512 19.9384H43.2945C43.0723 20.2162 42.8431 20.4453 42.6067 20.6258C42.3704 20.8064 42.0962 20.9407 41.7843 21.0286C41.4771 21.1212 41.1013 21.1675 40.657 21.1675C40.189 21.1675 39.7707 21.0842 39.4021 20.9175C39.0334 20.7462 38.7427 20.487 38.53 20.1398C38.3173 19.7925 38.2109 19.3527 38.2109 18.8203C38.2109 18.0286 38.5111 17.4338 39.1114 17.0356C39.7164 16.6374 40.6286 16.4175 41.8481 16.3759L43.2094 16.3273V15.9245C43.2094 15.3921 43.0818 15.0124 42.8265 14.7856C42.576 14.5587 42.2215 14.4453 41.763 14.4453C41.3707 14.4453 40.9902 14.5009 40.6215 14.612C40.2529 14.7231 39.8936 14.8597 39.5439 15.0217L39.005 13.8689C39.3879 13.6698 39.8227 13.5078 40.3096 13.3828C40.8012 13.2578 41.3117 13.1953 41.841 13.1953ZM43.2023 17.355L42.1884 17.3898C41.3565 17.4175 40.7728 17.5564 40.4372 17.8064C40.1016 18.0564 39.9338 18.399 39.9338 18.8342C39.9338 19.2138 40.0496 19.4916 40.2812 19.6675C40.5128 19.8388 40.8177 19.9245 41.1958 19.9245C41.7725 19.9245 42.2499 19.7648 42.628 19.4453C43.0109 19.1212 43.2023 18.6467 43.2023 18.0217V17.355Z" fill="white"/>
<path d="M36.701 15.8542C36.701 16.9977 36.4836 17.9537 36.0487 18.7222C35.6139 19.4861 34.9829 20.0625 34.1557 20.4514C33.3285 20.8356 32.3312 21.0278 31.1637 21.0278H28.2852V10.875H31.4757C32.5486 10.875 33.4751 11.0648 34.2549 11.4444C35.0348 11.8194 35.6375 12.3773 36.0629 13.118C36.4883 13.8542 36.701 14.7662 36.701 15.8542ZM34.9285 15.9027C34.9285 15.0694 34.7938 14.3842 34.5244 13.8472C34.2597 13.3102 33.8674 12.912 33.3474 12.6528C32.8322 12.3889 32.1965 12.2569 31.4402 12.2569H29.9868V19.6319H31.1921C32.4446 19.6319 33.3805 19.3194 33.9997 18.6944C34.6189 18.0694 34.9285 17.1389 34.9285 15.9027Z" fill="white"/>
<path d="M22.7688 13.1953C23.7614 13.1953 24.5105 13.4106 25.0163 13.8411C25.5268 14.2717 25.782 14.943 25.782 15.855V21.0286H24.598L24.2789 19.9384H24.2222C24 20.2162 23.7708 20.4453 23.5345 20.6258C23.2981 20.8064 23.024 20.9407 22.712 21.0286C22.4048 21.1212 22.029 21.1675 21.5847 21.1675C21.1168 21.1675 20.6985 21.0842 20.3298 20.9175C19.9611 20.7462 19.6704 20.487 19.4577 20.1398C19.245 19.7925 19.1387 19.3527 19.1387 18.8203C19.1387 18.0286 19.4388 17.4338 20.0391 17.0356C20.6441 16.6374 21.5564 16.4175 22.7759 16.3759L24.1371 16.3273V15.9245C24.1371 15.3921 24.0095 15.0124 23.7543 14.7856C23.5038 14.5587 23.1492 14.4453 22.6908 14.4453C22.2985 14.4453 21.9179 14.5009 21.5493 14.612C21.1806 14.7231 20.8214 14.8597 20.4716 15.0217L19.9327 13.8689C20.3156 13.6698 20.7505 13.5078 21.2373 13.3828C21.7289 13.2578 22.2393 13.1953 22.7688 13.1953ZM24.1301 17.355L23.1161 17.3898C22.2843 17.4175 21.7005 17.5564 21.3649 17.8064C21.0293 18.0564 20.8616 18.399 20.8616 18.8342C20.8616 19.2138 20.9773 19.4916 21.2089 19.6675C21.4406 19.8388 21.7454 19.9245 22.1235 19.9245C22.7002 19.9245 23.1776 19.7648 23.5557 19.4453C23.9386 19.1212 24.1301 18.6467 24.1301 18.0217V17.355Z" fill="white"/>
<path d="M18.0395 21.0278H10.5879V19.8819L15.8629 12.2916H10.7509V10.875H17.8977V12.0138L12.6227 19.6111H18.0395V21.0278Z" fill="white"/>
</g>
</g>
<defs>
<clipPath id="clip0_3643_925">
<rect width="240" height="32" fill="white"/>
</clipPath>
</defs>
</svg>
