<svg width="24" height="24" viewBox="0 0 336 336" fill="none"
  xmlns="http://www.w3.org/2000/svg">
  <path d="M0.000806072 167.484C0.284527 74.7006 75.3948 -0.284182 167.764 0.000809684C181.016 0.0416946 193.907 1.63028 206.268 4.59743C208.09 5.03469 209.381 6.66172 209.399 8.5429C209.417 10.4241 208.158 12.076 206.345 12.5488C151.203 26.9302 110.418 77.1876 110.235 137.092C110.017 208.377 167.37 266.343 238.337 266.562C263.059 266.638 286.161 259.7 305.789 247.614C307.386 246.631 309.444 246.867 310.78 248.185C312.116 249.504 312.386 251.568 311.435 253.188C282.267 302.895 228.343 336.189 166.737 335.999C74.3674 335.714 -0.282915 260.267 0.000806072 167.484Z" fill="currentColor"/>
  <path d="M284.255 176.183C286.752 166.785 288 159.507 288 154.35C288 152.974 286.315 151.37 282.944 149.536C279.698 147.702 277.513 146.785 276.389 146.785C275.391 146.785 274.891 146.9 274.891 147.129C273.768 150.109 271.458 154.063 267.963 158.991C264.467 163.92 261.72 167.186 259.723 168.791C256.477 170.625 249.61 171.542 239.124 171.542C228.762 171.542 223.581 171.14 223.581 170.338C223.581 167.817 231.633 156.069 247.738 135.095C263.968 114.12 275.953 99.6218 283.693 91.5989C284.692 90.682 285.191 90.0516 285.191 89.7077C285.191 86.2693 284.504 83.1748 283.131 80.4241C281.883 77.6733 280.759 75.8968 279.76 75.0946C277.513 74.4069 269.398 74.063 255.416 74.063C241.558 74.063 229.011 74.808 217.775 76.298C217.526 76.298 215.591 75.6103 211.97 74.235C208.35 72.745 204.792 72 201.296 72C200.797 72 199.735 74.1777 198.112 78.533C196.614 82.8882 195.179 87.8166 193.805 93.3181C192.557 98.8195 191.933 102.946 191.933 105.696C191.933 106.613 193.493 107.931 196.614 109.65C199.86 111.37 202.357 112.229 204.105 112.229L206.539 108.447C211.533 100.424 214.904 96.1261 216.652 95.553C220.397 93.8338 226.889 92.9742 236.127 92.9742C245.491 92.9742 250.172 93.318 250.172 94.0057C250.172 95.2665 245.553 101.628 236.315 113.089C227.076 124.436 217.213 136.585 206.727 149.536C196.365 162.487 190.185 170.911 188.187 174.808C188.062 175.266 188 176.47 188 178.418C188 180.367 188.687 182.946 190.06 186.155C191.558 189.364 192.931 190.968 194.18 190.968L252.794 189.421C256.914 189.421 259.473 189.479 260.472 189.593L263.281 190.281C269.149 191.427 273.456 192 276.202 192C277.576 192 278.449 191.828 278.824 191.484C279.948 190.567 281.758 185.467 284.255 176.183Z" fill="currentColor"/>
</svg>