<svg xmlns="http://www.w3.org/2000/svg" width="22" height="24" fill="none"><path fill="currentColor" d="M11 13.334c6.078 0 11 3.88 11 8.639a2.12 2.12 0 0 1-.71 1.46 2.254 2.254 0 0 1-1.559.566H2.27c-.291.007-.58-.041-.852-.142a2.224 2.224 0 0 1-.73-.448 2.148 2.148 0 0 1-.498-.685A2.093 2.093 0 0 1 0 21.906c0-4.732 4.923-8.572 11-8.572Zm0 2.04c-4.923 0-8.938 2.946-8.938 6.572a.26.26 0 0 0 .207.094H19.73a.27.27 0 0 0 .206-.094c0-3.626-4.015-6.572-8.937-6.572ZM13.198.464a4.542 4.542 0 0 1 1.707 1.419 6.518 6.518 0 0 1 1.127 3.812 7.198 7.198 0 0 1-1.375 4.613c-.44.529-.998.955-1.63 1.248a4.826 4.826 0 0 1-4.054 0 4.683 4.683 0 0 1-1.63-1.248 7.198 7.198 0 0 1-1.376-4.613 6.518 6.518 0 0 1 1.128-3.813A4.543 4.543 0 0 1 8.802.464a4.695 4.695 0 0 1 1.872-.46H11a4.7 4.7 0 0 1 2.198.46ZM9.755 2.235a2.5 2.5 0 0 0-.969.793 4.586 4.586 0 0 0-.756 2.666 5.342 5.342 0 0 0 .935 3.373c.237.302.546.545.9.707.354.162.743.24 1.135.226.391.014.78-.064 1.135-.226.354-.162.662-.405.9-.707a5.341 5.341 0 0 0 .935-3.373 4.689 4.689 0 0 0-.743-2.666 2.54 2.54 0 0 0-.977-.79c-.39-.18-.82-.261-1.25-.237a2.585 2.585 0 0 0-1.245.234Z"/></svg>