<svg width="24" height="24" viewBox="0 0 24 24" fill="none"
  xmlns="http://www.w3.org/2000/svg">
  <path d="M12 0C5.37305 0 0 5.37498 0 12C0 18.6289 5.37305 24 12 24C18.627 24 24 18.6289 24 12C24 5.37498 18.627 0 12 0ZM12 21.6774C6.65168 21.6774 2.32258 17.3501 2.32258 12C2.32258 6.65347 6.65187 2.32258 12 2.32258C17.3463 2.32258 21.6774 6.65182 21.6774 12C21.6774 17.3482 17.3501 21.6774 12 21.6774ZM17.1892 9.32903C17.1892 12.5735 13.685 12.6234 13.685 13.8224V14.129C13.685 14.4497 13.425 14.7097 13.1043 14.7097H10.8956C10.575 14.7097 10.315 14.4497 10.315 14.129V13.71C10.315 11.9805 11.6263 11.289 12.6172 10.7335C13.4669 10.2571 13.9877 9.9331 13.9877 9.30223C13.9877 8.46774 12.9232 7.91385 12.0627 7.91385C10.9406 7.91385 10.4226 8.445 9.6945 9.36397C9.49819 9.61171 9.13998 9.65773 8.88808 9.46674L7.54176 8.44587C7.29465 8.25852 7.23929 7.91042 7.41382 7.65411C8.55706 5.97537 10.0132 5.03226 12.2804 5.03226C14.6548 5.03226 17.1892 6.88568 17.1892 9.32903ZM14.0323 17.4194C14.0323 18.54 13.1206 19.4516 12 19.4516C10.8794 19.4516 9.96774 18.54 9.96774 17.4194C9.96774 16.2988 10.8794 15.3871 12 15.3871C13.1206 15.3871 14.0323 16.2988 14.0323 17.4194Z" fill="black"/>
</svg>
