<svg width="34" height="24" viewBox="0 0 34 24" fill="none"
  xmlns="http://www.w3.org/2000/svg">
  <path d="M6.88149 6.76772C7.4123 6.74829 7.93963 6.86197 8.41627 7.09862C8.89294 7.33525 9.30409 7.68745 9.61296 8.12374C10.1467 8.95212 10.4202 9.92388 10.3977 10.9119C10.4608 12.1121 10.1205 13.2987 9.43187 14.2791C9.13435 14.6658 8.75173 14.9774 8.31429 15.1889C7.87686 15.4005 7.39664 15.5064 6.91167 15.498H6.79095C4.30093 15.498 2.26365 17.0826 2.26365 19.0176H7.18331C8.11086 17.255 9.51553 15.795 11.2336 14.8077C12.9516 13.8204 14.9122 13.3464 16.8868 13.4411C18.8618 13.3445 20.8232 13.8178 22.5414 14.8052C24.2598 15.7928 25.6642 17.2538 26.5903 19.0176H31.7213C31.7213 17.0216 29.684 15.498 27.194 15.498H27.0732C26.5834 15.5099 26.0976 15.4058 25.6547 15.1942C25.2119 14.9826 24.8242 14.6692 24.5229 14.2791C23.8235 13.3026 23.4725 12.1157 23.5269 10.9119C23.5044 9.92388 23.7778 8.95212 24.3116 8.12374C24.6345 7.70299 25.0486 7.36243 25.522 7.12815C25.9956 6.89386 26.5158 6.77206 27.0431 6.77206C27.5703 6.77206 28.0905 6.89386 28.5641 7.12815C29.0375 7.36243 29.4516 7.70299 29.7745 8.12374C30.3083 8.95212 30.5817 9.92388 30.5593 10.9119C30.5885 11.8871 30.3813 12.8547 29.9556 13.7306C31.0825 14.0917 32.0733 14.7914 32.796 15.736C33.5187 16.6808 33.9387 17.8255 34 19.0176C33.998 19.3197 33.9371 19.6185 33.8207 19.8968C33.7044 20.1752 33.5349 20.4277 33.322 20.6399C33.1089 20.8521 32.8566 21.0199 32.5793 21.1337C32.3021 21.2475 32.0054 21.3049 31.7062 21.303H27.1789C27.1944 21.521 27.1944 21.7399 27.1789 21.9581C27.1593 22.5118 26.9253 23.0356 26.5275 23.4173C26.1299 23.7989 25.5998 24.0081 25.051 23.9998H8.66223C8.11204 24.0081 7.58029 23.7996 7.1801 23.4183C6.7799 23.037 6.54282 22.5132 6.51931 21.9581C6.50378 21.7399 6.50378 21.521 6.51931 21.303H2.30892C1.70572 21.3071 1.12518 21.0712 0.693023 20.6463C0.260878 20.2214 0.0118917 19.6416 0 19.0328C0.0549916 17.8438 0.467006 16.6997 1.18131 15.7526C1.89561 14.8055 2.8784 14.1004 3.99911 13.7306C3.62666 12.9642 3.42146 12.1275 3.39556 11.2771L3.39547 10.9119C3.36396 9.92708 3.62689 8.95555 4.15002 8.12374C4.45889 7.68745 4.87004 7.33525 5.34671 7.09862C5.82336 6.86197 6.35068 6.74829 6.88149 6.76772ZM16.8265 15.7266C12.4652 15.7266 8.88859 18.4081 8.75277 21.7448H24.9152C24.7643 18.3929 21.1877 15.7266 16.8265 15.7266ZM6.91167 9.05314C6.74196 9.03526 6.57056 9.06241 6.41441 9.13189C6.25826 9.20138 6.12276 9.31078 6.0213 9.44928C5.75388 9.90971 5.62784 10.4401 5.65912 10.9729C5.61119 11.6562 5.77466 12.3376 6.12694 12.9231C6.21972 13.0415 6.33966 13.1352 6.47639 13.1963C6.61311 13.2574 6.76251 13.2839 6.91167 13.2735C7.06083 13.2839 7.21023 13.2574 7.34696 13.1963C7.48368 13.1352 7.60363 13.0415 7.6964 12.9231C8.04869 12.3376 8.21215 11.6562 8.16422 10.9729C8.19551 10.4401 8.06947 9.90971 7.80204 9.44928C7.70059 9.31078 7.56508 9.20138 7.40894 9.13189C7.25279 9.06241 7.08139 9.03526 6.91167 9.05314ZM27.0431 8.9926C26.8755 8.9926 26.71 9.0278 26.5567 9.09592C26.4033 9.16406 26.2657 9.26355 26.1527 9.38833C25.8853 9.84877 25.7593 10.3791 25.7905 10.9119C25.7425 11.5953 25.9061 12.2766 26.2583 12.8622C26.3511 12.9805 26.4711 13.0742 26.6078 13.1353C26.7446 13.1964 26.894 13.223 27.0431 13.2126C27.1922 13.223 27.3416 13.1964 27.4783 13.1353C27.615 13.0742 27.735 12.9805 27.8278 12.8622C28.18 12.2766 28.3436 11.5953 28.2956 10.9119C28.3268 10.3791 28.2008 9.84877 27.9334 9.38833C27.8204 9.26355 27.6828 9.16406 27.5294 9.09592C27.3761 9.0278 27.2106 8.9926 27.0431 8.9926ZM19.0738 0.456894C19.7244 0.781378 20.285 1.26414 20.705 1.8617C21.4417 2.99055 21.8207 4.31913 21.7915 5.67072C21.8735 7.30213 21.4054 8.91342 20.4635 10.2416C20.0387 10.7591 19.506 11.1758 18.9034 11.4618C18.3008 11.7478 17.6433 11.896 16.9775 11.896C16.3117 11.896 15.654 11.7478 15.0515 11.4618C14.4489 11.1758 13.9163 10.7591 13.4914 10.2416C12.5495 8.91342 12.0813 7.30213 12.1634 5.67072C12.1342 4.31913 12.5132 2.99055 13.25 1.8617C13.6699 1.26414 14.2305 0.781378 14.8811 0.456894C15.4388 0.178779 16.0478 0.0244224 16.6672 0.00267218L16.9775 0.00288867C17.7026 -0.0235917 18.4231 0.132426 19.0738 0.456894ZM16.9775 2.2883C16.6134 2.26496 16.2494 2.33517 15.9195 2.49238C15.5896 2.64958 15.3047 2.88865 15.0911 3.18724C14.6291 3.92951 14.3977 4.79452 14.4271 5.67072C14.3523 6.79518 14.6437 7.91348 15.2571 8.85507C15.4681 9.10828 15.7315 9.31184 16.0286 9.45141C16.3259 9.59112 16.6497 9.6635 16.9775 9.6635C17.3053 9.6635 17.629 9.59112 17.9263 9.45141C18.2234 9.31184 18.4868 9.10828 18.6979 8.85507C19.3091 7.91256 19.6005 6.79496 19.5279 5.67072C19.5572 4.79452 19.326 3.92951 18.8639 3.18724C18.6504 2.88865 18.3653 2.64958 18.0354 2.49238C17.7055 2.33517 17.3415 2.26496 16.9775 2.2883Z" fill="currentColor"/>
</svg>
