<svg xmlns="http://www.w3.org/2000/svg" width="256" height="64" fill="none"><path fill="url(#a)" d="M48.407 41.74c0 2.608-.605 6.289-1.813 11.043-1.21 4.695-2.085 7.275-2.63 7.739-.18.174-.604.26-1.268.26-1.33 0-3.415-.29-6.255-.869l-1.36-.348c-.483-.058-1.722-.087-3.717-.087l-28.373.783c-.604 0-1.269-.812-1.994-2.435C.332 56.203 0 54.9 0 53.913c0-.985.03-1.594.09-1.826.968-1.971 3.959-6.232 8.975-12.783 5.076-6.55 9.85-12.695 14.322-18.434 4.472-5.798 6.708-9.015 6.708-9.653 0-.347-2.266-.521-6.798-.521-4.472 0-7.615.434-9.428 1.304-.846.29-2.477 2.464-4.895 6.522l-1.178 1.913c-.846 0-2.055-.435-3.626-1.305-1.511-.87-2.266-1.536-2.266-2 0-1.39.302-3.478.906-6.26.665-2.783 1.36-5.276 2.085-7.479.786-2.203 1.3-3.304 1.541-3.304 1.692 0 3.415.377 5.167 1.13 1.753.696 2.69 1.044 2.81 1.044 5.44-.754 11.513-1.13 18.22-1.13 6.769 0 10.697.173 11.785.521.483.406 1.027 1.305 1.632 2.696.664 1.391.997 2.956.997 4.695 0 .174-.242.493-.725.957-3.747 4.058-9.549 11.391-17.405 22-7.796 10.609-11.694 16.55-11.694 17.826 0 .406 2.508.609 7.524.609 5.076 0 8.4-.464 9.971-1.392.967-.811 2.297-2.463 3.989-4.956 1.692-2.493 2.81-4.493 3.354-6 0-.116.242-.174.725-.174.544 0 1.602.464 3.173 1.391 1.632.928 2.447 1.74 2.447 2.435Z"/><path fill="url(#b)" d="M87.133 39.652c0 7.247.091 11.478.272 12.696.484 3.188 1.511 5.478 3.082 6.87 0 .637-1.208 1.594-3.626 2.869C84.504 63.362 82.36 64 80.425 64c-.544 0-1.118-.783-1.722-2.348-.604-1.507-.967-2.638-1.088-3.391-.06-.754-.12-1.13-.181-1.13l-.272.173c-3.203 2.435-6.95 3.652-11.24 3.652-4.291 0-7.615-.985-9.972-2.956-2.296-2.029-3.445-4.667-3.445-7.913 0-3.246.726-5.971 2.176-8.174 1.51-2.26 3.263-3.971 5.258-5.13 1.994-1.16 4.2-2.087 6.617-2.783 3.686-1.16 6.587-1.74 8.702-1.74l.182-.086c0-2.84-3.747-4.261-11.24-4.261-2.962 0-5.168.116-6.618.348h-.09c0-1.16.362-2.609 1.087-4.348.786-1.74 1.42-2.87 1.904-3.391.544-.522 2.719-.783 6.526-.783 6.89 0 11.966 1.276 15.23 3.826 3.263 2.493 4.894 6.377 4.894 11.652v4.435Zm-10.062 5.565v-3.304c0-1.275-.03-1.913-.09-1.913-4.05 0-7.554 1.014-10.516 3.044-1.873 1.275-2.81 2.869-2.81 4.782 0 1.218.454 2.232 1.36 3.044.906.811 2.266 1.217 4.08 1.217 1.873 0 3.655-.522 5.347-1.565 1.753-1.044 2.63-2.812 2.63-5.305Z"/><path fill="url(#c)" d="M127.471 44.174c1.752-1.681 3.233-3.942 4.441-6.783 1.209-2.898 1.813-5.97 1.813-9.217 0-3.247-.604-6-1.813-8.261-1.208-2.319-2.628-4.058-4.26-5.217-1.632-1.218-3.505-2.203-5.62-2.957-3.264-1.16-6.376-1.739-9.337-1.739-.786 0-1.179.029-1.179.087-.423.406-.634 7.246-.634 20.522 0 13.275.211 20.116.634 20.521.121.116.544.174 1.27.174.785 0 1.933-.203 3.444-.608 1.571-.406 3.384-1.16 5.439-2.261a27.327 27.327 0 0 0 5.802-4.261Zm-28.102 1.652.272-34.348c-.664-.985-1.51-2.724-2.538-5.217-1.027-2.55-1.54-4.058-1.54-4.522 0-.522.03-.811.09-.87C96.257.29 99.823 0 106.349 0c12.57 0 22.27 2.522 29.099 7.565 6.889 5.044 10.334 11.797 10.334 20.261 0 4.174-.695 8.03-2.085 11.565-1.39 3.479-3.264 6.435-5.62 8.87a43.045 43.045 0 0 1-7.796 6.348 40.16 40.16 0 0 1-9.065 4.26c-6.285 1.972-11.996 2.957-17.133 2.957-2.417 0-3.807-.174-4.17-.522-.362-.348-.543-5.507-.543-15.478Z"/><path fill="url(#d)" d="M182.651 39.652c0 7.247.091 11.478.272 12.696.483 3.188 1.511 5.478 3.082 6.87 0 .637-1.209 1.594-3.626 2.869-2.357 1.275-4.502 1.913-6.436 1.913-.544 0-1.118-.783-1.722-2.348-.605-1.507-.967-2.638-1.088-3.391-.061-.754-.121-1.13-.181-1.13l-.272.173c-3.203 2.435-6.95 3.652-11.241 3.652-4.291 0-7.614-.985-9.971-2.956-2.297-2.029-3.445-4.667-3.445-7.913 0-3.246.725-5.971 2.176-8.174 1.51-2.26 3.263-3.971 5.257-5.13 1.995-1.16 4.2-2.087 6.618-2.783 3.686-1.16 6.587-1.74 8.702-1.74l.181-.086c0-2.84-3.747-4.261-11.24-4.261-2.961 0-5.167.116-6.618.348h-.09c0-1.16.362-2.609 1.088-4.348.785-1.74 1.42-2.87 1.903-3.391.544-.522 2.72-.783 6.527-.783 6.889 0 11.966 1.276 15.229 3.826 3.263 2.493 4.895 6.377 4.895 11.652v4.435Zm-10.062 5.565v-3.304c0-1.275-.03-1.913-.091-1.913-4.049 0-7.554 1.014-10.515 3.044-1.873 1.275-2.81 2.869-2.81 4.782 0 1.218.453 2.232 1.36 3.044.906.811 2.266 1.217 4.079 1.217 1.873 0 3.656-.522 5.348-1.565 1.753-1.044 2.629-2.812 2.629-5.305Z"/><path fill="url(#e)" d="m192.077 47.304-.181-19.739c0-3.42.121-5.246.362-5.478.665-.638 1.813-1.189 3.445-1.652 1.632-.522 3.142-.783 4.532-.783 1.451 0 2.176.145 2.176.435-.181 1.565-.272 3.362-.272 5.391 0 1.971.06 2.957.181 2.957s.242-.058.363-.174c.121-.174.302-.406.544-.696.302-.348.876-.927 1.722-1.739a16.527 16.527 0 0 1 2.901-2.087c2.599-1.623 5.378-2.435 8.34-2.435.483.754.725 1.913.725 3.479 0 3.304-.423 5.652-1.269 7.043l-.363.696-1.178-.174c-4.351 0-7.766 1.71-10.244 5.13-.967 1.392-1.45 2.435-1.45 3.13v7.653c0 6.956-.091 10.522-.272 10.695-1.692 1.566-5.016 2.348-9.971 2.348-.484 0-.726-.087-.726-.26.424-2.261.635-6.841.635-13.74Z"/><path fill="url(#f)" d="M222.188 42.174 221.916 12c0-5.623.151-8.58.453-8.87.725-.695 1.904-1.362 3.536-2 1.631-.637 3.203-.956 4.713-.956 1.511 0 2.267.116 2.267.348-.061.29-.212 4.348-.454 12.174-.181 7.826-.272 12.898-.272 15.217 0 2.26.031 3.565.091 3.913.06.29.181.435.363.435l.181-.087c1.934-1.971 4.804-4.435 8.612-7.391 3.807-2.957 6.254-4.435 7.342-4.435 3.566 2.145 5.348 3.884 5.348 5.217-1.813 1.102-3.958 2.609-6.436 4.522-2.477 1.913-3.837 3.13-4.079 3.652 0 .464.514 2.145 1.541 5.044 1.088 2.84 2.659 6.203 4.714 10.087 2.055 3.884 4.109 6.811 6.164 8.782 0 .696-1.33 1.565-3.989 2.609-2.659 1.043-4.955 1.565-6.889 1.565-.725 0-2.145-2.724-4.26-8.174-2.055-5.45-3.475-9.681-4.261-12.696l-.181-.26c-.242 0-.997.84-2.266 2.521-1.269 1.681-1.904 2.812-1.904 3.392l.272 8.87c0 2.086-.121 3.246-.363 3.477-.785.754-2.145 1.334-4.079 1.74-1.934.405-3.535.608-4.804.608-1.209 0-1.813-.087-1.813-.26.483-2.551.725-8.841.725-18.87Z"/><defs><linearGradient id="a" x1="128" x2="128" y1="0" y2="64" gradientUnits="userSpaceOnUse"><stop stop-color="#3989FF"/><stop offset="1" stop-color="#0068FF"/></linearGradient><linearGradient id="b" x1="128" x2="128" y1="0" y2="64" gradientUnits="userSpaceOnUse"><stop stop-color="#3989FF"/><stop offset="1" stop-color="#0068FF"/></linearGradient><linearGradient id="c" x1="128" x2="128" y1="0" y2="64" gradientUnits="userSpaceOnUse"><stop stop-color="#3989FF"/><stop offset="1" stop-color="#0068FF"/></linearGradient><linearGradient id="d" x1="128" x2="128" y1="0" y2="64" gradientUnits="userSpaceOnUse"><stop stop-color="#3989FF"/><stop offset="1" stop-color="#0068FF"/></linearGradient><linearGradient id="e" x1="128" x2="128" y1="0" y2="64" gradientUnits="userSpaceOnUse"><stop stop-color="#3989FF"/><stop offset="1" stop-color="#0068FF"/></linearGradient><linearGradient id="f" x1="128" x2="128" y1="0" y2="64" gradientUnits="userSpaceOnUse"><stop stop-color="#3989FF"/><stop offset="1" stop-color="#0068FF"/></linearGradient></defs></svg>