<svg xmlns="http://www.w3.org/2000/svg" xmlns:xlink="http://www.w3.org/1999/xlink" viewBox="0 0 1500 1500"><defs><style>.cls-1{isolation:isolate;}.cls-2{fill:url(#linear-gradient);}.cls-3{fill:#ff6700;}.cls-4{fill:url(#linear-gradient-2);}.cls-5{fill:#fff;}.cls-6{fill:#feda09;}.cls-7{fill:#f4b608;mix-blend-mode:multiply;opacity:0.19;}</style><linearGradient id="linear-gradient" x1="144.82" y1="1783.15" x2="1664.24" y2="263.73" gradientTransform="translate(-99.5 -328.45)" gradientUnits="userSpaceOnUse"><stop offset="0" stop-color="#414042"/><stop offset="1" stop-color="#231f20"/></linearGradient><linearGradient id="linear-gradient-2" x1="1319.56" y1="2345.41" x2="767.63" y2="1016.54" gradientTransform="matrix(1, 0, 0, 1, 0, 0)" xlink:href="#linear-gradient"/></defs><g class="cls-1"><g id="Layer_1" data-name="Layer 1"><polygon points="1421.26 927.29 78.74 927.29 200.73 860.21 1299.27 860.21 1421.26 927.29"/><rect class="cls-2" x="243.27" y="243.27" width="1013.47" height="1013.47" rx="13.44" transform="translate(750 -310.66) rotate(45)"/><rect class="cls-3" x="335.11" y="335.11" width="829.78" height="829.78" rx="11" transform="translate(750 -310.66) rotate(45)"/><path class="cls-4" d="M1421.26,927.29H78.74l33.72,166.56a168,168,0,0,0,164.67,134.66h945.74a168,168,0,0,0,164.67-134.66Z"/><path class="cls-3" d="M345.4,1081.15c0-30-10.59-43.72-16.2-48.9a1.59,1.59,0,0,0-2.65,1.41c1.09,17-20.11,21.23-20.11,47.81v.15c0,16.2,12.16,29.41,27.12,29.41s27.11-13.21,27.11-29.41v-.15c0-7.55-2.8-14.79-5.61-20.13-.62-1.1-2.18-.63-2,.31C358.18,1084.61,345.4,1098.76,345.4,1081.15Z"/><path class="cls-3" d="M313.14,1144.52a2.88,2.88,0,0,1-1.87-.78l-69.34-70a2.87,2.87,0,0,1,0-3.77l73.24-73.91a3.21,3.21,0,0,1,1.71-.63h21a2.45,2.45,0,0,1,2.34,1.57,2.57,2.57,0,0,1-.62,2.83l-68.73,69.51a3.54,3.54,0,0,0,0,5l54.39,55a2.89,2.89,0,0,1,0,3.77l-10.44,10.7a3.29,3.29,0,0,1-1.72.62ZM327,1156.79a2.46,2.46,0,0,1-2.33-1.57,2.54,2.54,0,0,1,.62-2.83l68.88-69.51a3.74,3.74,0,0,0,1.09-2.52,3.13,3.13,0,0,0-1.09-2.51l-54.54-55a2.87,2.87,0,0,1,0-3.77l10.59-10.7a2.57,2.57,0,0,1,1.87-.78,2.39,2.39,0,0,1,1.72.94l69.19,70a2.67,2.67,0,0,1,0,3.77l-73.24,73.91a2.58,2.58,0,0,1-1.87.79H327Z"/><path class="cls-5" d="M501.71,1045.77a1.56,1.56,0,0,1-1.56.94,2.94,2.94,0,0,1-1.87-1.1,23,23,0,0,0-8.1-4.72,21,21,0,0,0-7.48-1.1,24.06,24.06,0,0,0-7.8,1.26,17.12,17.12,0,0,0-5.61,3.46,13.94,13.94,0,0,0-3.42,5,15.77,15.77,0,0,0-1.25,6,13.38,13.38,0,0,0,1.71,6.92A14.5,14.5,0,0,0,471,1067a25.12,25.12,0,0,0,6.54,3.14c2.5.95,5,1.73,7.48,2.52a72.69,72.69,0,0,1,7.48,2.83,29.78,29.78,0,0,1,6.55,3.77,16.52,16.52,0,0,1,4.68,5.67,18.84,18.84,0,0,1,1.71,8.33,27.58,27.58,0,0,1-1.71,9.59,22,22,0,0,1-5,7.87,26.91,26.91,0,0,1-8.11,5.34,29.89,29.89,0,0,1-10.9,1.89,30.49,30.49,0,0,1-13.72-2.83,32.85,32.85,0,0,1-10.13-7.86l1.56-2.52A1.73,1.73,0,0,1,459,1104a1.88,1.88,0,0,1,1.25.63c.46.47,1.24,1.1,1.87,1.73.78.63,1.71,1.42,2.8,2.2a21.32,21.32,0,0,0,3.74,2.21,29.27,29.27,0,0,0,4.83,1.72,25,25,0,0,0,6.24.63,24,24,0,0,0,8.57-1.41,20.11,20.11,0,0,0,6.39-3.93,17.83,17.83,0,0,0,4.05-6,20.16,20.16,0,0,0,1.4-7.39,14,14,0,0,0-1.71-7.08,13.43,13.43,0,0,0-4.68-4.71,25.46,25.46,0,0,0-6.54-3.15c-2.5-.78-5-1.73-7.48-2.51s-5-1.73-7.48-2.68a24.54,24.54,0,0,1-6.55-3.77,19,19,0,0,1-4.67-5.82,20.43,20.43,0,0,1-1.72-8.81,19.69,19.69,0,0,1,1.56-7.86,21.22,21.22,0,0,1,4.52-6.76,24.5,24.5,0,0,1,7.32-4.72,28.28,28.28,0,0,1,10-1.73,29.26,29.26,0,0,1,11.37,2,31.35,31.35,0,0,1,9.2,6.13Z"/><path class="cls-5" d="M479.42,1119.36a30.57,30.57,0,0,1-14.18-3,34.61,34.61,0,0,1-10.44-8l-.47-.48,2-3.14a2.88,2.88,0,0,1,2.34-1.26,2.73,2.73,0,0,1,1.87.94,24.54,24.54,0,0,0,2,1.73c.78.63,1.72,1.42,2.65,2.21a19.73,19.73,0,0,0,3.59,2,20.18,20.18,0,0,0,4.67,1.57,23.42,23.42,0,0,0,6.08.63,22.26,22.26,0,0,0,8.26-1.41,20,20,0,0,0,6.08-3.78,15.56,15.56,0,0,0,3.74-5.66,17.89,17.89,0,0,0,1.24-7.07,12.2,12.2,0,0,0-1.55-6.61,14.76,14.76,0,0,0-4.37-4.4,25.49,25.49,0,0,0-6.23-3c-2.34-.79-4.83-1.73-7.48-2.52s-5.14-1.73-7.48-2.67a27.88,27.88,0,0,1-6.7-3.93,18.61,18.61,0,0,1-4.83-6.13,20.2,20.2,0,0,1-1.87-9.12,22,22,0,0,1,1.55-8.34,21.69,21.69,0,0,1,4.68-7.08,23.72,23.72,0,0,1,7.64-4.87,26.6,26.6,0,0,1,10.28-1.89,30.35,30.35,0,0,1,11.69,2,30.92,30.92,0,0,1,9.51,6.44l.46.48-1.71,3.3c-.94,1.73-2.65,2.2-4.83.16a21.14,21.14,0,0,0-3.12-2.21,36.42,36.42,0,0,0-4.83-2.36,22.46,22.46,0,0,0-7.17-1.1,22.11,22.11,0,0,0-7.48,1.26,15.27,15.27,0,0,0-5.3,3.3,16.14,16.14,0,0,0-3.27,4.72,14.09,14.09,0,0,0-1.09,5.66,11.06,11.06,0,0,0,1.56,6.29,14.64,14.64,0,0,0,4.36,4.41,33.59,33.59,0,0,0,6.23,3.14c2.34.79,4.84,1.73,7.48,2.52a59.38,59.38,0,0,1,7.48,2.83,28,28,0,0,1,6.71,3.93,18.18,18.18,0,0,1,4.83,6,18.87,18.87,0,0,1,1.87,8.8,27.65,27.65,0,0,1-1.87,10.07,23.86,23.86,0,0,1-5.3,8.17,26.17,26.17,0,0,1-8.42,5.51,30.92,30.92,0,0,1-10.91,1.88Zm-22.59-11.79a29.13,29.13,0,0,0,22.75,9.91,28.28,28.28,0,0,0,10.6-1.89,24.91,24.91,0,0,0,7.79-5,22.47,22.47,0,0,0,4.83-7.55,25.86,25.86,0,0,0,1.71-9.28,20.49,20.49,0,0,0-1.55-8,16.15,16.15,0,0,0-4.37-5.35,34.83,34.83,0,0,0-6.23-3.77c-2.34-.94-4.83-1.89-7.33-2.83-2.49-.79-5-1.73-7.48-2.52a38,38,0,0,1-6.7-3.3,16.13,16.13,0,0,1-4.83-4.87,13.39,13.39,0,0,1-1.87-7.39,18.18,18.18,0,0,1,1.25-6.45,14,14,0,0,1,3.58-5.35,15.09,15.09,0,0,1,5.92-3.61A21.87,21.87,0,0,1,483,1039a23.22,23.22,0,0,1,7.79,1.1,24.58,24.58,0,0,1,8.42,5c.93.79,1.24.79,1.24.79a.59.59,0,0,0,.63-.48l1.09-2a28.06,28.06,0,0,0-8.26-5.5A30,30,0,0,0,483,1036a26.45,26.45,0,0,0-9.66,1.73,22.3,22.3,0,0,0-7,4.4,18.94,18.94,0,0,0-5.76,14,18.84,18.84,0,0,0,1.71,8.33,15.25,15.25,0,0,0,4.37,5.51,27,27,0,0,0,6.23,3.61c2.34,1,4.83,1.89,7.32,2.68s5,1.57,7.48,2.51a29.86,29.86,0,0,1,6.7,3.3,13.59,13.59,0,0,1,4.84,5,14.49,14.49,0,0,1,1.87,7.7,21.92,21.92,0,0,1-1.41,7.87,15.92,15.92,0,0,1-4.2,6.29,22.28,22.28,0,0,1-6.71,4.24,26.34,26.34,0,0,1-8.88,1.57,28.73,28.73,0,0,1-6.54-.78,30.43,30.43,0,0,1-5-1.73,16.35,16.35,0,0,1-3.9-2.36c-1.09-.79-2-1.57-2.8-2.2a23,23,0,0,1-1.87-1.73c-.47-.47-.78-.47-.78-.47a.84.84,0,0,0-.78.47Z"/><path class="cls-5" d="M594.43,1076.59a50,50,0,0,1-2.8,17.14,37.3,37.3,0,0,1-8,13.21,36.89,36.89,0,0,1-12.15,8.49,42.53,42.53,0,0,1-31.33,0,34.59,34.59,0,0,1-12.15-8.49,37.3,37.3,0,0,1-7.95-13.21,53.68,53.68,0,0,1,0-34.28,37.3,37.3,0,0,1,7.95-13.21,36.79,36.79,0,0,1,12.15-8.49,42.53,42.53,0,0,1,31.33,0,34.81,34.81,0,0,1,12.15,8.49,37.3,37.3,0,0,1,8,13.21A50,50,0,0,1,594.43,1076.59Zm-6.07,0a47.67,47.67,0,0,0-2.34-15.41,32.93,32.93,0,0,0-6.55-11.48,28.47,28.47,0,0,0-10.28-7.23,36.09,36.09,0,0,0-26.5,0,28.47,28.47,0,0,0-10.28,7.23,33.2,33.2,0,0,0-6.7,11.48,47,47,0,0,0-2.34,15.41,47.67,47.67,0,0,0,2.34,15.41,30.93,30.93,0,0,0,6.7,11.48,28.37,28.37,0,0,0,10.28,7.24,33.39,33.39,0,0,0,13.25,2.51,32.85,32.85,0,0,0,13.25-2.51,26.68,26.68,0,0,0,10.28-7.24A32.84,32.84,0,0,0,586,1092,47,47,0,0,0,588.36,1076.59Z"/><path class="cls-5" d="M555.94,1119.21a42.66,42.66,0,0,1-15.89-3,35,35,0,0,1-12.47-8.65,39,39,0,0,1-8.11-13.52,51.88,51.88,0,0,1-3-17.46,48.36,48.36,0,0,1,3-17.45,40.58,40.58,0,0,1,8.11-13.53,35,35,0,0,1,12.47-8.65,40.47,40.47,0,0,1,15.89-3.14,43.52,43.52,0,0,1,16,3,35,35,0,0,1,12.47,8.64,40.56,40.56,0,0,1,8.1,13.53,55.62,55.62,0,0,1,0,34.91,40.41,40.41,0,0,1-8.1,13.52,34.88,34.88,0,0,1-12.47,8.65A38.53,38.53,0,0,1,555.94,1119.21Zm0-83.35a37.9,37.9,0,0,0-15.27,3,34.33,34.33,0,0,0-19.48,21.07,51.78,51.78,0,0,0,0,33.65,39,39,0,0,0,7.64,12.9,34.85,34.85,0,0,0,11.84,8.18,42.61,42.61,0,0,0,30.54,0,35,35,0,0,0,11.85-8.18,35.92,35.92,0,0,0,7.63-12.74,51.78,51.78,0,0,0,0-33.65,39.28,39.28,0,0,0-7.63-12.9,37.72,37.72,0,0,0-27.12-11.32Z"/><path class="cls-5" d="M640.72,1113.23a24.89,24.89,0,0,0,10.44-2A23,23,0,0,0,663.78,1097a33.41,33.41,0,0,0,1.72-10.69v-50.48h5.76v50.48a36.8,36.8,0,0,1-2.18,12.58,30.6,30.6,0,0,1-6.08,10.22,28.27,28.27,0,0,1-9.66,6.76,32.94,32.94,0,0,1-12.78,2.52,30.05,30.05,0,0,1-22.44-9.28,29.25,29.25,0,0,1-6.08-10.22,37.49,37.49,0,0,1-2.18-12.58v-50.48h5.92v50.32a34.22,34.22,0,0,0,1.72,10.7,25,25,0,0,0,4.83,8.49,23.78,23.78,0,0,0,7.79,5.66,23.33,23.33,0,0,0,10.6,2.2Z"/><path class="cls-5" d="M640.72,1119.36a31.88,31.88,0,0,1-13.09-2.51,28.82,28.82,0,0,1-10-7.08,32.39,32.39,0,0,1-6.23-10.53,38.71,38.71,0,0,1-2.18-12.9v-51.42H617v51.42a37.76,37.76,0,0,0,1.56,10.38,23.44,23.44,0,0,0,4.67,8.18,22.07,22.07,0,0,0,7.48,5.5,25.13,25.13,0,0,0,10,2,24.5,24.5,0,0,0,10-1.88,20.2,20.2,0,0,0,7.48-5.51,24.67,24.67,0,0,0,4.68-8.17,31.58,31.58,0,0,0,1.56-10.38v-51.58h7.79v51.42a38.71,38.71,0,0,1-2.18,12.9,32.59,32.59,0,0,1-6.24,10.53,28.88,28.88,0,0,1-10,7.08,31.91,31.91,0,0,1-13.09,2.51ZM611,1036.81v49.53a35,35,0,0,0,2,12.27,28.81,28.81,0,0,0,5.92,9.9,25.29,25.29,0,0,0,9.35,6.61,31,31,0,0,0,12.47,2.36,32.05,32.05,0,0,0,12.46-2.36,26.71,26.71,0,0,0,9.36-6.61,31.73,31.73,0,0,0,5.92-9.9,35,35,0,0,0,2-12.27v-49.53h-3.89v49.53a36.21,36.21,0,0,1-1.72,11,23.13,23.13,0,0,1-5.14,9,23.78,23.78,0,0,1-8.1,6,26.41,26.41,0,0,1-10.76,2.2,25.85,25.85,0,0,1-10.75-2.2,23.68,23.68,0,0,1-8.1-6,25,25,0,0,1-5-9,35.44,35.44,0,0,1-1.71-11v-49.53Z"/><path class="cls-5" d="M704.77,1076.12h4.83a35.85,35.85,0,0,0,9.66-1.26,19.42,19.42,0,0,0,7.17-3.77,16.33,16.33,0,0,0,4.52-5.82,17.48,17.48,0,0,0,1.56-7.71c0-5.82-1.87-10.06-5.61-12.89s-9.2-4.25-16.52-4.25H695.57v77.06h-5.76v-81.62h20.57c9.35,0,16.36,1.89,20.88,5.51,4.68,3.61,6.86,9,6.86,16a21.17,21.17,0,0,1-1.56,8.49,20.23,20.23,0,0,1-4.68,6.76,22.71,22.71,0,0,1-7.16,4.72,35.11,35.11,0,0,1-9.51,2.51,12,12,0,0,1,2.49,2.36l27.9,35.23h-5.15a4.44,4.44,0,0,1-1.55-.32,2.73,2.73,0,0,1-1.25-1.1l-25.87-33a6.4,6.4,0,0,0-2-1.73c-.77-.32-5.29-.47-6.85-.47,0-4.25.62-4.72,1.87-4.72Z"/><path class="cls-5" d="M747.62,1118.42h-7a4.37,4.37,0,0,1-2-.47,4.43,4.43,0,0,1-1.55-1.42l-25.87-33a5.11,5.11,0,0,0-1.72-1.57,50.7,50.7,0,0,0-6.39-.47h-.93v-4.09c0-1.42.31-2.2,2.8-2.2h5a34.72,34.72,0,0,0,9.35-1.26,19.21,19.21,0,0,0,6.86-3.62,14.47,14.47,0,0,0,4.21-5.5,18.22,18.22,0,0,0,1.4-7.24c0-5.5-1.72-9.43-5.3-12.11s-8.88-4.08-15.9-4.08H696.66v76.89h-7.79v-83.34h21.66q14.26,0,21.51,5.66c4.83,3.77,7.32,9.43,7.32,16.83a23.53,23.53,0,0,1-1.71,9,22.12,22.12,0,0,1-4.83,7.08,28.85,28.85,0,0,1-7.48,5,36.3,36.3,0,0,1-7.64,2.2,6.71,6.71,0,0,1,.94,1.1Zm-43.79-38.84c1.72,0,5.3.16,6.24.63a7.6,7.6,0,0,1,2.49,2l25.87,33a2.67,2.67,0,0,0,.93.94,2.26,2.26,0,0,0,1.09.31h3.12l-26.65-33.65a6.63,6.63,0,0,0-2.18-2l-2.34-1.42,2.81-.31a27.62,27.62,0,0,0,16.21-6.92,18.2,18.2,0,0,0,4.36-6.45,23.25,23.25,0,0,0,1.56-8.18c0-6.76-2.18-11.79-6.55-15.25s-11.22-5.19-20.26-5.19H690.9v79.41h3.89v-77h15.74c7.33,0,13.09,1.41,17,4.4q6.08,4.48,6.08,13.68a21.7,21.7,0,0,1-1.56,8,16.55,16.55,0,0,1-4.83,6.14,21.37,21.37,0,0,1-7.48,3.93,32.69,32.69,0,0,1-10,1.41h-4.83c-.46,0-.93,0-1.09,2.52Z"/><path class="cls-5" d="M814,1103.64a1.13,1.13,0,0,1,.94.47l2.33,2.52a39.49,39.49,0,0,1-5.45,4.87,33.36,33.36,0,0,1-6.55,3.62,54.47,54.47,0,0,1-7.63,2.36,42.65,42.65,0,0,1-9.2.78,38.08,38.08,0,0,1-15.42-3,32.79,32.79,0,0,1-12-8.5,39.22,39.22,0,0,1-7.8-13.21,50,50,0,0,1-2.8-17.14,46.2,46.2,0,0,1,3-17,39,39,0,0,1,8.1-13.21,36.61,36.61,0,0,1,12.47-8.49,41,41,0,0,1,16-3,43.77,43.77,0,0,1,8.11.63,43.11,43.11,0,0,1,6.85,1.89,26.4,26.4,0,0,1,5.92,3.14,47.45,47.45,0,0,1,5.46,4.25l-1.72,2.51a1.48,1.48,0,0,1-1.4.63,1.8,1.8,0,0,1-1.24-.63c-.47-.47-1.25-.94-2-1.57a24.6,24.6,0,0,0-3-1.89,13.26,13.26,0,0,0-4.21-1.88,35.1,35.1,0,0,0-5.61-1.57,32.42,32.42,0,0,0-7.17-.63,34.21,34.21,0,0,0-13.56,2.51,29.44,29.44,0,0,0-10.59,7.39,35.6,35.6,0,0,0-7,11.48,42.45,42.45,0,0,0-2.49,15.26,43.3,43.3,0,0,0,2.49,15.41,33.65,33.65,0,0,0,6.86,11.48,30.86,30.86,0,0,0,23.07,9.75,39.25,39.25,0,0,0,7.79-.63,24.68,24.68,0,0,0,6.23-1.73,28.76,28.76,0,0,0,5.3-2.83,28.22,28.22,0,0,0,4.83-3.93c.16-.16.31-.32.47-.32C813.54,1103.8,813.86,1103.64,814,1103.64Z"/><path class="cls-5" d="M788.3,1119.36a42,42,0,0,1-15.74-3,34.43,34.43,0,0,1-12.31-8.65,38.73,38.73,0,0,1-8-13.53,51.85,51.85,0,0,1-2.81-17.45,47.54,47.54,0,0,1,3-17.3,43.77,43.77,0,0,1,8.26-13.52,38,38,0,0,1,12.78-8.81A43.07,43.07,0,0,1,790,1034a45.42,45.42,0,0,1,8.26.62,46.29,46.29,0,0,1,7,1.89,27.79,27.79,0,0,1,6.08,3.15A44.89,44.89,0,0,1,817,1044l.63.63-2.19,3.3a2.44,2.44,0,0,1-2.18,1.1,3.69,3.69,0,0,1-1.87-.78,11.22,11.22,0,0,0-2-1.42,16.3,16.3,0,0,0-3-1.89,32,32,0,0,0-4-1.88,24.86,24.86,0,0,0-5.45-1.42,45.22,45.22,0,0,0-7-.63,33.15,33.15,0,0,0-13.25,2.52,30,30,0,0,0-17,18.24,44.42,44.42,0,0,0-2.49,14.78,45.13,45.13,0,0,0,2.34,15.1,31.58,31.58,0,0,0,6.54,11.16,27.83,27.83,0,0,0,10,6.92,32.05,32.05,0,0,0,12.46,2.36,37.63,37.63,0,0,0,7.64-.63,24.47,24.47,0,0,0,6.08-1.73,39.28,39.28,0,0,0,5.14-2.67,48.48,48.48,0,0,0,4.68-3.78,2.58,2.58,0,0,1,3.42,0l3,3.15-.62.63a42,42,0,0,1-5.61,5,30.71,30.71,0,0,1-6.7,3.77,29.13,29.13,0,0,1-8,2.36A32.62,32.62,0,0,1,788.3,1119.36Zm1.71-83.5a39.17,39.17,0,0,0-15.74,3,33.14,33.14,0,0,0-12.15,8.33,37.39,37.39,0,0,0-8,12.9,47.33,47.33,0,0,0-2.81,16.67,48.18,48.18,0,0,0,2.81,16.82,39.17,39.17,0,0,0,7.63,12.9,34.35,34.35,0,0,0,11.69,8.18,38.6,38.6,0,0,0,15,2.83,53.85,53.85,0,0,0,9-.79,27.75,27.75,0,0,0,7.48-2.36,27.09,27.09,0,0,0,6.24-3.61,40.56,40.56,0,0,0,4.67-4.09l-1.71-1.89a.29.29,0,0,0-.47,0c-.16,0-.31.16-.47.31a39.41,39.41,0,0,1-5,3.94,36,36,0,0,1-5.45,3,29.16,29.16,0,0,1-6.39,1.73,57.5,57.5,0,0,1-7.95.63,36.81,36.81,0,0,1-13.24-2.51,31.49,31.49,0,0,1-10.6-7.4,35.14,35.14,0,0,1-7-11.79,50.2,50.2,0,0,1,0-31.29,33.15,33.15,0,0,1,7.17-11.8,31,31,0,0,1,10.9-7.55,36.58,36.58,0,0,1,13.87-2.67,35.51,35.51,0,0,1,7.33.63,42.68,42.68,0,0,1,5.76,1.57,22.54,22.54,0,0,1,4.37,2,31.06,31.06,0,0,1,3,2c.78.63,1.56,1.1,2,1.57s.77.48.77.48c.47,0,.63-.16.63-.32l1.24-1.89a46.22,46.22,0,0,0-4.67-3.61,28.77,28.77,0,0,0-5.77-3,41,41,0,0,0-6.7-1.89,21.56,21.56,0,0,0-7.48-1.1Z"/><path class="cls-5" d="M880.55,1035.86v4.88H838v33h35.38v4.72H838v34h42.54v4.88H832.09v-81.46Z"/><path class="cls-5" d="M881.49,1118.42H831.15v-83.5h50.34v6.76H839v31h35.37v6.76H839v32.08h42.54ZM833,1116.53h46.6v-3H837.08v-36h35.37v-2.83H837.08v-34.91h42.54v-3H833Z"/><path class="cls-5" d="M953,1034.92v12.42H916.4V1072h30.85v12.42H916.4v34H901v-83.34h52Zm89.61,41.67a46.4,46.4,0,0,1-3,17,39.16,39.16,0,0,1-8.58,13.53,39.57,39.57,0,0,1-13.24,9,43.29,43.29,0,0,1-17.14,3.15,46.17,46.17,0,0,1-17.15-3.15,39.19,39.19,0,0,1-21.81-22.49,50.18,50.18,0,0,1,0-34,39.14,39.14,0,0,1,8.57-13.53,41.25,41.25,0,0,1,13.24-9,47.26,47.26,0,0,1,34.29.16,39.26,39.26,0,0,1,21.82,22.48A48.27,48.27,0,0,1,1042.63,1076.59Zm-15.74,0a37.63,37.63,0,0,0-1.87-12.26,27.82,27.82,0,0,0-5.15-9.28,22.41,22.41,0,0,0-8.25-5.82,30.06,30.06,0,0,0-21.82,0,23.76,23.76,0,0,0-8.26,5.82,25.69,25.69,0,0,0-5.3,9.28,41.16,41.16,0,0,0,0,24.53,25.73,25.73,0,0,0,5.3,9.27,23.85,23.85,0,0,0,8.26,5.82,30.06,30.06,0,0,0,21.82,0,23.72,23.72,0,0,0,8.25-5.82,27.87,27.87,0,0,0,5.15-9.27A37.73,37.73,0,0,0,1026.89,1076.59Zm47.84-1.89h3.58a22.28,22.28,0,0,0,7.64-1.1,15.66,15.66,0,0,0,5.3-3,11.5,11.5,0,0,0,3.12-4.57,17.54,17.54,0,0,0,1.09-5.81c0-4.25-1.41-7.55-4.21-9.75s-7-3.46-12.62-3.46h-10v71.39h-15.43v-83.34h25.25a55.1,55.1,0,0,1,14.49,1.73,26.26,26.26,0,0,1,9.82,4.87,18.79,18.79,0,0,1,5.61,7.55,24.64,24.64,0,0,1,1.87,9.75,27,27,0,0,1-1.25,8,21.42,21.42,0,0,1-3.58,6.76,23.94,23.94,0,0,1-5.77,5.35,25.2,25.2,0,0,1-7.79,3.61,15.81,15.81,0,0,1,5,4.72l20.73,30.82h-13.87a7.37,7.37,0,0,1-3.43-.78,5.6,5.6,0,0,1-2.34-2.36l-17.3-26.74c-.47-.62-1.4-2-2.34-2.2h-5.45v-10.06c.16-1.42,1.87-1.42,1.87-1.42Zm88,32.24a38,38,0,0,0,9-.94,41.18,41.18,0,0,0,7.32-2.68v-18.87h-10.28a3.8,3.8,0,0,1-2.34-.78,2.8,2.8,0,0,1-.94-2.05v-8.8H1193v37.42a34.09,34.09,0,0,1-6.54,3.93,50.26,50.26,0,0,1-7.33,2.84,46.3,46.3,0,0,1-8.26,1.57,90.69,90.69,0,0,1-9.5.47,44.27,44.27,0,0,1-16.68-3.15,36.47,36.47,0,0,1-13.09-8.8,42.19,42.19,0,0,1-8.73-13.53,47.27,47.27,0,0,1-3.11-17.14,47.83,47.83,0,0,1,3-17.29,39.14,39.14,0,0,1,8.57-13.53,38.29,38.29,0,0,1,13.56-8.8,48.88,48.88,0,0,1,17.76-3.15c6.7,0,12.63.94,17.46,3a41.32,41.32,0,0,1,12.46,7.86l-4.51,7.08a4.11,4.11,0,0,1-3.43,2.2,5.08,5.08,0,0,1-2.81-.94c-1.25-.79-2.49-1.42-3.74-2.21a17.37,17.37,0,0,0-4.21-1.88,40.3,40.3,0,0,0-5.14-1.26,41.35,41.35,0,0,0-6.7-.47,27.85,27.85,0,0,0-11.06,2,22.92,22.92,0,0,0-8.42,6,25.69,25.69,0,0,0-5.3,9.28,37.06,37.06,0,0,0-1.87,12.1,36.55,36.55,0,0,0,2,12.9,27.86,27.86,0,0,0,5.61,9.43,25.65,25.65,0,0,0,8.57,6,29.22,29.22,0,0,0,11.22,2.2Zm84.62-22.17h-25.09v21.07h36.47v12.42h-52v-83.34h52v12.42h-36.63V1073H1251v9.12s-.15,2.68-3.58,2.68Z"/><path class="cls-5" d="M346.19,830.74,324.1,790.65h-6.21v40.09H292V724.53h43.42q12.56,0,21.41,4.39a30.23,30.23,0,0,1,13.24,12,33.55,33.55,0,0,1,4.39,17,31.58,31.58,0,0,1-6,18.91q-6,8.32-17.62,11.8l24.51,42.06Zm-28.3-58.4h16q7.11,0,10.67-3.48t3.55-9.84q0-6-3.55-9.53T333.93,746h-16Z"/><path class="cls-5" d="M416.54,724.53V830.74H390.67V724.53Z"/><path class="cls-5" d="M452.85,828a34,34,0,0,1-14.75-11.2A30.64,30.64,0,0,1,432.27,799h27.54q.6,5.89,4.09,9a13.09,13.09,0,0,0,9.07,3.1c3.84,0,6.86-.88,9.08-2.65a8.84,8.84,0,0,0,3.33-7.33,8.69,8.69,0,0,0-2.65-6.51,21.58,21.58,0,0,0-6.5-4.24,109.8,109.8,0,0,0-11-3.78,119.68,119.68,0,0,1-16.8-6.35,31,31,0,0,1-11.19-9.38q-4.69-6.21-4.69-16.19,0-14.83,10.74-23.23t28-8.39q17.55,0,28.29,8.39t11.5,23.38h-28a11,11,0,0,0-3.78-8.1,13.37,13.37,0,0,0-8.93-3,11.12,11.12,0,0,0-7.56,2.5q-2.88,2.49-2.88,7.19,0,5.15,4.84,8t15.13,6.2a139.76,139.76,0,0,1,16.72,6.66,31.59,31.59,0,0,1,11.12,9.23q4.69,6,4.69,15.58a30.63,30.63,0,0,1-4.61,16.49,32.25,32.25,0,0,1-13.39,11.8q-8.77,4.4-20.73,4.39A54.65,54.65,0,0,1,452.85,828Z"/><path class="cls-5" d="M554.22,724.53V830.74H528.35V724.53Z"/><path class="cls-5" d="M668,830.74H642.13l-43.28-65.51v65.51H573V724.53h25.87l43.28,65.81V724.53H668Z"/><path class="cls-5" d="M757.26,758.12A19.34,19.34,0,0,0,749,750a27,27,0,0,0-12.63-2.8q-12.57,0-20.13,8.25t-7.56,22q0,14.68,7.94,22.93t21.86,8.24q9.54,0,16.12-4.84t9.6-13.92H731.39V770.83h56.29v24a50.8,50.8,0,0,1-9.76,18,51.36,51.36,0,0,1-17.48,13.46,54,54,0,0,1-23.9,5.15,56.57,56.57,0,0,1-28.07-6.89,49,49,0,0,1-19.22-19.14q-6.88-12.26-6.88-28a56.56,56.56,0,0,1,6.88-28.06,49.13,49.13,0,0,1,19.14-19.22q12.25-6.88,28-6.88,19.05,0,32.15,9.23t17.32,25.57Z"/><path class="cls-5" d="M851.67,828a34,34,0,0,1-14.75-11.2A30.57,30.57,0,0,1,831.1,799h27.53q.61,5.89,4.09,9a13.11,13.11,0,0,0,9.08,3.1q5.75,0,9.07-2.65a8.84,8.84,0,0,0,3.33-7.33,8.72,8.72,0,0,0-2.64-6.51,21.76,21.76,0,0,0-6.51-4.24,108.9,108.9,0,0,0-11-3.78,119,119,0,0,1-16.79-6.35,31.12,31.12,0,0,1-11.2-9.38q-4.7-6.21-4.69-16.19,0-14.83,10.74-23.23t28-8.39q17.55,0,28.29,8.39t11.5,23.38h-28a11,11,0,0,0-3.78-8.1,13.37,13.37,0,0,0-8.93-3,11.14,11.14,0,0,0-7.56,2.5c-1.92,1.66-2.87,4.06-2.87,7.19q0,5.15,4.84,8t15.13,6.2a139.52,139.52,0,0,1,16.71,6.66,31.71,31.71,0,0,1,11.13,9.23q4.68,6,4.69,15.58a30.55,30.55,0,0,1-4.62,16.49,32.25,32.25,0,0,1-13.39,11.8q-8.78,4.4-20.73,4.39A54.65,54.65,0,0,1,851.67,828Z"/><path class="cls-5" d="M1003.58,724.53v20.73H975.44v85.48H949.56V745.26H921.42V724.53Z"/><path class="cls-5" d="M1082.71,812h-39.65l-6.35,18.76h-27.08l38.43-106.21h30l38.42,106.21h-27.38Zm-6.66-20-13.17-38.89-13,38.89Z"/><path class="cls-5" d="M1182.26,830.74l-22.09-40.09H1154v40.09h-25.88V724.53h43.43q12.56,0,21.41,4.39a30.23,30.23,0,0,1,13.24,12,33.64,33.64,0,0,1,4.38,17,31.64,31.64,0,0,1-6,18.91q-6,8.32-17.63,11.8l24.51,42.06ZM1154,772.34h16q7.11,0,10.67-3.48t3.56-9.84q0-6-3.56-9.53T1170,746h-16Z"/><path class="cls-6" d="M743.51,360.22l-43.18,87.49a6.4,6.4,0,0,1-4.83,3.51l-96.56,14a6.41,6.41,0,0,0-3.56,10.94l69.87,68.1A6.45,6.45,0,0,1,667.1,550l-16.5,96.17a6.42,6.42,0,0,0,9.31,6.76l86.37-45.4a6.43,6.43,0,0,1,6,0l86.36,45.4a6.41,6.41,0,0,0,9.31-6.76L831.43,550a6.42,6.42,0,0,1,1.84-5.68l69.87-68.1a6.41,6.41,0,0,0-3.55-10.94l-96.56-14a6.38,6.38,0,0,1-4.83-3.51L755,360.22A6.41,6.41,0,0,0,743.51,360.22Z"/><path class="cls-7" d="M664.78,563.5A134.43,134.43,0,0,0,848.72,457.86l53.44,7.77a5.13,5.13,0,0,1,2.85,8.75l-72.22,70.4a5.14,5.14,0,0,0-1.48,4.54l17.05,99.4a5.13,5.13,0,0,1-7.44,5.41L751.65,607.2a5.1,5.1,0,0,0-4.77,0l-89.27,46.93a5.14,5.14,0,0,1-7.45-5.41Z"/></g></g></svg>